<?xml version="1.0" encoding="UTF-8" standalone="no"?><!DOCTYPE svg PUBLIC "-//W3C//DTD SVG 1.1//EN" "http://www.w3.org/Graphics/SVG/1.1/DTD/svg11.dtd"><svg width="100%" height="100%" viewBox="0 0 5334 3000" version="1.1" xmlns="http://www.w3.org/2000/svg" xmlns:xlink="http://www.w3.org/1999/xlink" xml:space="preserve" xmlns:serif="http://www.serif.com/" style="fill-rule:evenodd;clip-rule:evenodd;"><rect x="0" y="0" width="5333.333" height="3000" style="fill:#fff;"/><text x="150px" y="216.667px" style="font-family:'Helvetica-Bold', 'Helvetica';font-weight:700;font-size:41.667px;fill:#108a63;">F<tspan x="176.493px 209.945px 241.077px 252.962px 281.795px 315.247px 346.379px 377.511px 390.129px 430.497px 463.949px 495.081px 526.213px 555.046px 581.539px 612.671px 643.803px " y="216.667px 216.667px 216.667px 216.667px 216.667px 216.667px 216.667px 216.667px 216.667px 216.667px 216.667px 216.667px 216.667px 216.667px 216.667px 216.667px 216.667px ">OR YOUR WORKPLACE</tspan></text><g transform="matrix(208.333333,0,0,208.333333,758.215332,441.666667)"></g><g transform="matrix(208.333333,0,0,208.333333,820.388737,441.666667)"></g><g transform="matrix(208.333333,0,0,208.333333,882.562142,441.666667)"></g><text x="150px" y="441.667px" style="font-family:'Georgia', serif;font-size:208.333px;fill:#013f3a;">Your oﬃce becomes a better place to work.</text><path d="M1708.333,633.333l0,983.333c0,36.794 -29.872,66.667 -66.667,66.667l-1425,0c-36.794,0 -66.667,-29.872 -66.667,-66.667l0,-983.333c0,-36.794 29.872,-66.667 66.667,-66.667l1425,0c36.794,0 66.667,29.872 66.667,66.667Z" style="fill:#f9fafb;stroke:#e8eeec;stroke-width:6.25px;"/><path d="M1708.333,577.083c0,5.749 -4.668,10.417 -10.417,10.417l-1537.5,0c-5.749,0 -10.417,-4.668 -10.417,-10.417c0,-5.749 4.668,-10.417 10.417,-10.417l1537.5,0c5.749,0 10.417,4.668 10.417,10.417Z" style="fill:#013f3a;"/><circle cx="416.667" cy="833.333" r="150" style="fill:#f0f7f4;"/><text x="354.167px" y="900px" style="font-family:'AppleColorEmoji', 'Apple Color Emoji';font-size:125px;">🗑️</text><text x="633.333px" y="804.167px" style="font-family:'Georgia', serif;font-size:83.333px;fill:#013f3a;">Cleaner kitchen bins</text><text x="266.667px" y="1091.667px" style="font-family:'Helvetica';font-size:56.25px;fill:#525560;">Separate food scraps at source and the</text><text x="266.667px" y="1166.667px" style="font-family:'Helvetica';font-size:56.25px;fill:#525560;">shared kitchen bin stays cleaner<tspan x="1067.158px 1082.786px " y="1166.667px 1166.667px ">, </tspan>drier<tspan x="1207.865px " y="1166.667px ">,</tspan></text><text x="266.667px" y="1241.667px" style="font-family:'Helvetica';font-size:56.25px;fill:#525560;">and fresher all week long.</text><path d="M1233.333,1500c0,27.596 -22.404,50 -50,50l-866.667,0c-27.596,0 -50,-22.404 -50,-50c0,-27.596 22.404,-50 50,-50l866.667,0c27.596,0 50,22.404 50,50Z" style="fill:#f0f7f4;"/><text x="394.815px" y="1516.667px" style="font-family:'Helvetica-Bold', 'Helvetica';font-weight:700;font-size:45.833px;fill:#108a63;">V<tspan x="424.763px 437.68px 463.354px 476.271px 504.451px 517.368px 543.042px 555.959px 568.877px 597.057px 622.731px 648.404px 663.85px 679.297px 707.477px 722.923px 751.103px 776.777px 802.45px 815.368px 828.285px 869.221px 897.402px 915.421px 943.602px 969.275px 994.949px 1035.885px 1061.559px 1089.739px " y="1516.667px 1516.667px 1516.667px 1516.667px 1516.667px 1516.667px 1516.667px 1516.667px 1516.667px 1516.667px 1516.667px 1516.667px 1516.667px 1516.667px 1516.667px 1516.667px 1516.667px 1516.667px 1516.667px 1516.667px 1516.667px 1516.667px 1516.667px 1516.667px 1516.667px 1516.667px 1516.667px 1516.667px 1516.667px 1516.667px ">isible, day-to-day improvement</tspan></text><path d="M3450,633.333l0,983.333c0,36.794 -29.872,66.667 -66.667,66.667l-1425,0c-36.794,0 -66.667,-29.872 -66.667,-66.667l0,-983.333c0,-36.794 29.872,-66.667 66.667,-66.667l1425,0c36.794,0 66.667,29.872 66.667,66.667Z" style="fill:#f9fafb;stroke:#e8eeec;stroke-width:6.25px;"/><path d="M3450,577.083c0,5.749 -4.668,10.417 -10.417,10.417l-1537.5,0c-5.749,0 -10.417,-4.668 -10.417,-10.417c0,-5.749 4.668,-10.417 10.417,-10.417l1537.5,0c5.749,0 10.417,4.668 10.417,10.417Z" style="fill:#013f3a;"/><circle cx="2158.333" cy="833.333" r="150" style="fill:#f0f7f4;"/><text x="2095.833px" y="900px" style="font-family:'AppleColorEmoji', 'Apple Color Emoji';font-size:125px;">🐀</text><text x="2375px" y="804.167px" style="font-family:'Georgia', serif;font-size:83.333px;fill:#013f3a;">Fewer pests</text><g transform="matrix(56.25,0,0,56.25,2155.248006,1091.666667)"></g><g transform="matrix(56.25,0,0,56.25,2170.876058,1091.666667)"></g><text x="2008.333px" y="1091.667px" style="font-family:'Helvetica';font-size:56.25px;fill:#525560;">Rats, ﬂies, and cockroaches are drawn to</text><text x="2008.333px" y="1166.667px" style="font-family:'Helvetica';font-size:56.25px;fill:#525560;">organic waste. Remove the source and</text><text x="2008.333px" y="1241.667px" style="font-family:'Helvetica';font-size:56.25px;fill:#525560;">you remove their reason to be there.</text><path d="M2900,1500c0,27.596 -22.404,50 -50,50l-791.667,0c-27.596,0 -50,-22.404 -50,-50c0,-27.596 22.404,-50 50,-50l791.667,0c27.596,0 50,22.404 50,50Z" style="fill:#f0f7f4;"/><text x="2122.495px" y="1516.667px" style="font-family:'Helvetica-Bold', 'Helvetica';font-weight:700;font-size:45.833px;fill:#108a63;">A<tspan x="2154.1px 2167.017px 2185.037px 2210.71px 2236.384px 2249.301px 2262.219px 2290.399px 2316.072px 2341.746px 2357.192px 2372.638px 2390.658px 2416.332px 2444.512px 2472.692px 2498.366px 2513.812px 2526.729px 2554.909px 2583.09px 2596.007px 2636.943px 2662.617px 2688.291px 2713.964px 2742.145px 2760.164px " y="1516.667px 1516.667px 1516.667px 1516.667px 1516.667px 1516.667px 1516.667px 1516.667px 1516.667px 1516.667px 1516.667px 1516.667px 1516.667px 1516.667px 1516.667px 1516.667px 1516.667px 1516.667px 1516.667px 1516.667px 1516.667px 1516.667px 1516.667px 1516.667px 1516.667px 1516.667px 1516.667px 1516.667px "> real pest-reduction measure</tspan></text><path d="M5191.667,633.333l0,983.333c0,36.794 -29.872,66.667 -66.667,66.667l-1425,0c-36.794,0 -66.667,-29.872 -66.667,-66.667l0,-983.333c0,-36.794 29.872,-66.667 66.667,-66.667l1425,0c36.794,0 66.667,29.872 66.667,66.667Z" style="fill:#f9fafb;stroke:#e8eeec;stroke-width:6.25px;"/><path d="M5191.667,577.083c0,5.749 -4.668,10.417 -10.417,10.417l-1537.5,0c-5.749,0 -10.417,-4.668 -10.417,-10.417c0,-5.749 4.668,-10.417 10.417,-10.417l1537.5,0c5.749,0 10.417,4.668 10.417,10.417Z" style="fill:#013f3a;"/><circle cx="3900" cy="833.333" r="150" style="fill:#f0f7f4;"/><text x="3837.5px" y="900px" style="font-family:'AppleColorEmoji', 'Apple Color Emoji';font-size:125px;">💨</text><text x="4116.667px" y="804.167px" style="font-family:'Georgia', serif;font-size:83.333px;fill:#013f3a;">No kitchen smell</text><text x="3750px" y="1091.667px" style="font-family:'Helvetica';font-size:56.25px;fill:#525560;">The single biggest kitchen complaint in</text><g transform="matrix(56.25,0,0,56.25,3983.54187,1166.666667)"></g><g transform="matrix(56.25,0,0,56.25,3999.169922,1166.666667)"></g><text x="3750px" y="1166.667px" style="font-family:'Helvetica';font-size:56.25px;fill:#525560;">shared of<tspan x="3983.542px " y="1166.667px ">ﬁ</tspan>ce spaces. <tspan x="4293.109px 4330.627px " y="1166.667px 1166.667px ">Ad</tspan>dressed at source</text><text x="3750px" y="1241.667px" style="font-family:'Helvetica';font-size:56.25px;fill:#525560;">— not masked with chemicals.</text><path d="M4550,1500c0,27.596 -22.404,50 -50,50l-700,0c-27.596,0 -50,-22.404 -50,-50c0,-27.596 22.404,-50 50,-50l700,0c27.596,0 50,22.404 50,50Z" style="fill:#f0f7f4;"/><text x="3941.997px" y="1516.667px" style="font-family:'Helvetica-Bold', 'Helvetica';font-weight:700;font-size:45.833px;fill:#108a63;">S<tspan x="3972.751px 3988.197px 4013.871px 4029.317px 4044.763px 4057.68px 4093.514px 4119.188px 4132.105px 4145.023px 4173.203px 4198.877px 4211.794px 4239.974px 4268.154px 4281.071px 4316.905px 4329.823px " y="1516.667px 1516.667px 1516.667px 1516.667px 1516.667px 1516.667px 1516.667px 1516.667px 1516.667px 1516.667px 1516.667px 1516.667px 1516.667px 1516.667px 1516.667px 1516.667px 1516.667px 1516.667px ">taff wellbeing win</tspan></text><rect x="0" y="1858.333" width="5333.333" height="1141.667" style="fill:#013f3a;"/><path d="M2666.667,1950l0,933.333" style="fill:none;fill-rule:nonzero;stroke:#fff;stroke-opacity:0.12;stroke-width:4.17px;"/><circle cx="400" cy="2158.333" r="150" style="fill:#84cba3;fill-opacity:0.15;"/><text x="341.667px" y="2225px" style="font-family:'AppleColorEmoji', 'Apple Color Emoji';font-size:116.667px;">🌿</text><g transform="matrix(83.333333,0,0,83.333333,787.711589,2095.833333)"></g><g transform="matrix(83.333333,0,0,83.333333,813.248582,2095.833333)"></g><text x="633.333px" y="2095.833px" style="font-family:'Georgia', serif;font-size:83.333px;fill:#fff;">Veriﬁed ESG credentials</text><text x="633.333px" y="2208.333px" style="font-family:'Helvetica';font-size:56.25px;fill:#fff;fill-opacity:0.62;">Report real, auditable CO₂e avoided in your</text><text x="633.333px" y="2291.667px" style="font-family:'Helvetica';font-size:56.25px;fill:#fff;fill-opacity:0.62;">sustainability report, B-Corp application, or</text><g transform="matrix(56.25,0,0,56.25,1108.629354,2375)"></g><g transform="matrix(56.25,0,0,56.25,1124.257406,2375)"></g><text x="633.333px" y="2375px" style="font-family:'Helvetica';font-size:56.25px;fill:#fff;fill-opacity:0.62;">green building certiﬁcation. W<tspan x="1370.214px 1401.497px " y="2375px 2375px ">e </tspan>supply the data.</text><path d="M1750,2525c0,27.596 -22.404,50 -50,50l-1016.667,0c-27.596,0 -50,-22.404 -50,-50c0,-27.596 22.404,-50 50,-50l1016.667,0c27.596,0 50,22.404 50,50Z" style="fill:#84cba3;fill-opacity:0.18;stroke:#84cba3;stroke-opacity:0.3;stroke-width:3.13px;"/><text x="684.4px" y="2541.667px" style="font-family:'Helvetica-Bold', 'Helvetica';font-weight:700;font-size:45.833px;fill:#84cba3;">E<tspan x="715.154px 745.908px 781.742px 794.659px 812.679px 838.353px 866.533px 894.713px 912.733px 928.179px 941.096px 969.276px 997.457px 1010.374px 1023.291px 1036.208px 1069.491px 1084.937px 1118.22px 1146.4px 1164.42px 1192.6px 1205.517px 1218.435px 1231.352px 1257.026px 1285.206px 1310.88px 1326.326px 1351.999px 1364.917px 1393.097px 1418.77px 1446.951px 1459.868px 1472.785px 1485.703px 1501.149px 1526.822px 1539.74px 1557.76px 1583.433px 1611.613px 1639.793px 1657.813px 1673.26px " y="2541.667px 2541.667px 2541.667px 2541.667px 2541.667px 2541.667px 2541.667px 2541.667px 2541.667px 2541.667px 2541.667px 2541.667px 2541.667px 2541.667px 2541.667px 2541.667px 2541.667px 2541.667px 2541.667px 2541.667px 2541.667px 2541.667px 2541.667px 2541.667px 2541.667px 2541.667px 2541.667px 2541.667px 2541.667px 2541.667px 2541.667px 2541.667px 2541.667px 2541.667px 2541.667px 2541.667px 2541.667px 2541.667px 2541.667px 2541.667px 2541.667px 2541.667px 2541.667px 2541.667px 2541.667px 2541.667px ">SG reporting · B-Corp · sustainability reports</tspan></text><circle cx="2975" cy="2158.333" r="150" style="fill:#fbb718;fill-opacity:0.12;"/><text x="2916.667px" y="2225px" style="font-family:'AppleColorEmoji', 'Apple Color Emoji';font-size:116.667px;">🤝</text><g transform="matrix(83.333333,0,0,83.333333,3325.846354,2095.833333)"></g><g transform="matrix(83.333333,0,0,83.333333,3352.945964,2095.833333)"></g><text x="3208.333px" y="2095.833px" style="font-family:'Georgia', serif;font-size:83.333px;fill:#fff;">Staﬀ engagement</text><text x="3208.333px" y="2208.333px" style="font-family:'Helvetica';font-size:56.25px;fill:#fff;fill-opacity:0.62;">Employees want to work for companies that</text><text x="3208.333px" y="2291.667px" style="font-family:'Helvetica';font-size:56.25px;fill:#fff;fill-opacity:0.62;">act on sustainability<tspan x="3695.083px 3710.711px " y="2291.667px 2291.667px ">. </tspan>Gooi gives your team</text><text x="3208.333px" y="2375px" style="font-family:'Helvetica';font-size:56.25px;fill:#fff;fill-opacity:0.62;">something tangible and meaningful to join.</text><path d="M4275,2525c0,27.596 -22.404,50 -50,50l-966.667,0c-27.596,0 -50,-22.404 -50,-50c0,-27.596 22.404,-50 50,-50l966.667,0c27.596,0 50,22.404 50,50Z" style="fill:#fbb718;fill-opacity:0.12;stroke:#fbb718;stroke-opacity:0.28;stroke-width:3.13px;"/><text x="3337.742px" y="2541.667px" style="font-family:'Helvetica-Bold', 'Helvetica';font-weight:700;font-size:45.833px;fill:#fbb718;">A<tspan x="3369.346px 3382.263px 3407.937px 3436.117px 3449.034px 3464.48px 3492.661px 3510.68px 3536.354px 3549.271px 3585.105px 3598.023px 3626.203px 3639.12px 3652.037px 3680.218px 3708.398px 3723.844px 3736.761px 3749.679px 3777.859px 3803.532px 3818.979px 3831.896px 3857.569px 3870.487px 3885.933px 3911.607px 3937.28px 3950.198px 3963.115px 3976.032px 3991.478px 4004.396px 4030.069px 4055.743px 4068.66px 4104.494px 4117.412px " y="2541.667px 2541.667px 2541.667px 2541.667px 2541.667px 2541.667px 2541.667px 2541.667px 2541.667px 2541.667px 2541.667px 2541.667px 2541.667px 2541.667px 2541.667px 2541.667px 2541.667px 2541.667px 2541.667px 2541.667px 2541.667px 2541.667px 2541.667px 2541.667px 2541.667px 2541.667px 2541.667px 2541.667px 2541.667px 2541.667px 2541.667px 2541.667px 2541.667px 2541.667px 2541.667px 2541.667px 2541.667px 2541.667px 2541.667px "> culture win, not just a facilities win</tspan></text></svg>