<?xml version="1.0" encoding="UTF-8" standalone="no"?><!DOCTYPE svg PUBLIC "-//W3C//DTD SVG 1.1//EN" "http://www.w3.org/Graphics/SVG/1.1/DTD/svg11.dtd"><svg width="100%" height="100%" viewBox="0 0 5334 3000" version="1.1" xmlns="http://www.w3.org/2000/svg" xmlns:xlink="http://www.w3.org/1999/xlink" xml:space="preserve" xmlns:serif="http://www.serif.com/" style="fill-rule:evenodd;clip-rule:evenodd;"><rect x="0" y="0" width="5333.333" height="3000" style="fill:#013f3a;"/><circle cx="4416.667" cy="1083.333" r="1333.333" style="fill:#84cba3;fill-opacity:0.07;"/><circle cx="4916.667" cy="583.333" r="875" style="fill:#84cba3;fill-opacity:0.06;"/><circle cx="4000" cy="1916.667" r="791.667" style="fill:#84cba3;fill-opacity:0.05;"/><circle cx="4750" cy="2250" r="541.667" style="fill:#fbb718;fill-opacity:0.04;"/><circle cx="3416.667" cy="833.333" r="416.667" style="fill:#84cba3;fill-opacity:0.04;"/><clipPath id="_clip1"><rect x="46.201" y="56.117" width="851.375" height="424.701"/></clipPath><g clip-path="url(#_clip1)"><g id="Layer_1-2"><path d="M273.826,404.727c-0.472,-0.686 -1.135,-1.257 -1.996,-1.707c-0.861,-0.45 -1.783,-0.678 -2.774,-0.678c-2.446,0 -4.351,0.731 -5.707,2.194c-1.356,1.463 -2.027,3.376 -2.027,5.738c0,2.362 0.678,4.275 2.027,5.738c1.356,1.463 3.254,2.194 5.707,2.194c1.074,0 1.996,-0.236 2.774,-0.709c0.77,-0.472 1.44,-1.029 1.996,-1.676l6.378,6.705c-1.501,1.547 -3.276,2.629 -5.319,3.254c-2.042,0.625 -3.985,0.937 -5.829,0.937c-2.408,0 -4.671,-0.389 -6.797,-1.158c-2.126,-0.777 -3.977,-1.882 -5.54,-3.322c-1.57,-1.44 -2.804,-3.17 -3.703,-5.189c-0.899,-2.019 -1.356,-4.275 -1.356,-6.766c0,-2.492 0.45,-4.747 1.356,-6.766c0.899,-2.019 2.134,-3.749 3.703,-5.189c1.57,-1.44 3.414,-2.545 5.54,-3.322c2.126,-0.77 4.389,-1.158 6.797,-1.158c1.844,0 3.795,0.312 5.829,0.937c2.042,0.625 3.81,1.707 5.319,3.254l-6.378,6.705l0,-0.015Z" style="fill:#fff;fill-rule:nonzero;"/><path d="M282.527,410.266c0,-2.492 0.45,-4.747 1.356,-6.766c0.899,-2.019 2.134,-3.749 3.703,-5.189c1.57,-1.44 3.414,-2.545 5.54,-3.322c2.126,-0.77 4.389,-1.158 6.797,-1.158c2.408,0 4.671,0.389 6.797,1.158c2.126,0.777 3.97,1.882 5.54,3.322c1.57,1.44 2.804,3.17 3.703,5.189c0.899,2.019 1.356,4.275 1.356,6.766c0,2.492 -0.45,4.747 -1.356,6.766c-0.899,2.019 -2.141,3.749 -3.703,5.189c-1.57,1.44 -3.414,2.545 -5.54,3.322c-2.126,0.77 -4.397,1.158 -6.797,1.158c-2.4,0 -4.671,-0.389 -6.797,-1.158c-2.126,-0.777 -3.977,-1.882 -5.54,-3.322c-1.57,-1.44 -2.804,-3.17 -3.703,-5.189c-0.899,-2.019 -1.356,-4.275 -1.356,-6.766Zm9.669,0c0,2.362 0.678,4.275 2.027,5.738c1.356,1.463 3.254,2.194 5.707,2.194c2.454,0 4.351,-0.731 5.7,-2.194c1.356,-1.463 2.027,-3.376 2.027,-5.738c0,-2.362 -0.678,-4.275 -2.027,-5.738c-1.356,-1.463 -3.254,-2.194 -5.7,-2.194c-2.446,0 -4.351,0.731 -5.707,2.194c-1.356,1.463 -2.027,3.376 -2.027,5.738Z" style="fill:#fff;fill-rule:nonzero;"/><path d="M322.996,394.608l9.281,0l0,4.252l0.13,0c0.297,-0.602 0.731,-1.204 1.288,-1.806c0.556,-0.602 1.227,-1.135 1.996,-1.608c0.777,-0.472 1.653,-0.861 2.644,-1.158c0.991,-0.297 2.065,-0.45 3.223,-0.45c2.194,0 4.138,0.45 5.829,1.356c1.699,0.899 2.972,2.316 3.833,4.252c1.12,-2.019 2.469,-3.459 4.061,-4.32c1.585,-0.861 3.543,-1.288 5.867,-1.288c2.103,0 3.878,0.358 5.319,1.067c1.44,0.709 2.575,1.676 3.414,2.903c0.838,1.227 1.44,2.667 1.806,4.32c0.366,1.653 0.549,3.429 0.549,5.319l0,18.493l-9.669,0l0,-18.242c0,-1.463 -0.312,-2.72 -0.937,-3.772c-0.625,-1.052 -1.73,-1.577 -3.322,-1.577c-1.12,0 -2.05,0.183 -2.804,0.549c-0.754,0.366 -1.356,0.869 -1.806,1.516c-0.45,0.648 -0.777,1.394 -0.968,2.255c-0.19,0.861 -0.29,1.76 -0.29,2.705l0,16.565l-9.669,0l0,-16.565c0,-0.556 -0.023,-1.242 -0.061,-2.065c-0.046,-0.815 -0.19,-1.593 -0.45,-2.316c-0.259,-0.731 -0.678,-1.356 -1.257,-1.867c-0.579,-0.518 -1.433,-0.777 -2.545,-0.777c-1.25,0 -2.255,0.229 -3.033,0.678c-0.77,0.45 -1.364,1.052 -1.775,1.806c-0.411,0.754 -0.678,1.6 -0.808,2.545c-0.13,0.945 -0.19,1.935 -0.19,2.964l0,15.598l-9.669,0l0,-31.317l0.015,-0.015Z" style="fill:#fff;fill-rule:nonzero;"/><path d="M379.968,394.608l8.892,0l0,4.122l0.13,0c0.389,-0.556 0.892,-1.128 1.516,-1.707c0.625,-0.579 1.356,-1.105 2.194,-1.577c0.838,-0.472 1.753,-0.861 2.735,-1.158c0.991,-0.297 2.042,-0.45 3.155,-0.45c2.316,0 4.427,0.396 6.317,1.189c1.89,0.792 3.513,1.913 4.869,3.353c1.356,1.44 2.393,3.147 3.124,5.12c0.731,1.974 1.097,4.145 1.097,6.507c0,2.194 -0.335,4.282 -0.998,6.286c-0.671,1.996 -1.608,3.772 -2.835,5.319c-1.227,1.547 -2.72,2.781 -4.48,3.703c-1.76,0.922 -3.757,1.387 -5.997,1.387c-2.019,0 -3.901,-0.312 -5.639,-0.937c-1.737,-0.625 -3.17,-1.684 -4.282,-3.193l-0.13,0l0,18.044l-9.669,0l0,-46.016l0,0.008Zm8.892,15.659c0,2.362 0.678,4.275 2.027,5.738c1.356,1.463 3.254,2.194 5.7,2.194c2.446,0 4.351,-0.731 5.707,-2.194c1.356,-1.463 2.027,-3.376 2.027,-5.738c0,-2.362 -0.678,-4.275 -2.027,-5.738c-1.356,-1.463 -3.254,-2.194 -5.707,-2.194c-2.454,0 -4.351,0.731 -5.7,2.194c-1.356,1.463 -2.027,3.376 -2.027,5.738Z" style="fill:#fff;fill-rule:nonzero;"/><path d="M418.509,410.266c0,-2.492 0.45,-4.747 1.356,-6.766c0.899,-2.019 2.134,-3.749 3.703,-5.189c1.57,-1.44 3.414,-2.545 5.54,-3.322c2.126,-0.77 4.389,-1.158 6.797,-1.158c2.408,0 4.671,0.389 6.797,1.158c2.126,0.777 3.97,1.882 5.54,3.322c1.57,1.44 2.804,3.17 3.703,5.189c0.899,2.019 1.356,4.275 1.356,6.766c0,2.492 -0.45,4.747 -1.356,6.766c-0.899,2.019 -2.141,3.749 -3.703,5.189c-1.57,1.44 -3.414,2.545 -5.54,3.322c-2.126,0.77 -4.397,1.158 -6.797,1.158c-2.4,0 -4.671,-0.389 -6.797,-1.158c-2.126,-0.777 -3.977,-1.882 -5.54,-3.322c-1.57,-1.44 -2.804,-3.17 -3.703,-5.189c-0.899,-2.019 -1.356,-4.275 -1.356,-6.766Zm9.662,0c0,2.362 0.678,4.275 2.027,5.738c1.356,1.463 3.254,2.194 5.707,2.194c2.454,0 4.351,-0.731 5.7,-2.194c1.356,-1.463 2.027,-3.376 2.027,-5.738c0,-2.362 -0.678,-4.275 -2.027,-5.738c-1.356,-1.463 -3.254,-2.194 -5.7,-2.194c-2.446,0 -4.351,0.731 -5.707,2.194c-1.356,1.463 -2.027,3.376 -2.027,5.738Z" style="fill:#fff;fill-rule:nonzero;"/><path d="M476.701,403.82c-1.417,-1.76 -3.284,-2.644 -5.608,-2.644c-0.815,0 -1.608,0.19 -2.385,0.579c-0.777,0.389 -1.158,1.052 -1.158,1.996c0,0.77 0.396,1.341 1.189,1.707c0.792,0.366 1.806,0.686 3.033,0.968c1.227,0.282 2.537,0.579 3.932,0.899c1.394,0.32 2.705,0.831 3.932,1.516c1.227,0.686 2.233,1.623 3.033,2.804c0.792,1.181 1.189,2.758 1.189,4.739c0,1.981 -0.442,3.688 -1.318,4.991c-0.884,1.311 -2.012,2.362 -3.383,3.155c-1.379,0.792 -2.918,1.356 -4.64,1.676c-1.722,0.32 -3.414,0.48 -5.09,0.48c-2.194,0 -4.404,-0.312 -6.637,-0.937c-2.233,-0.625 -4.122,-1.73 -5.669,-3.322l5.867,-6.507c0.899,1.12 1.905,1.966 2.995,2.545c1.097,0.579 2.377,0.869 3.833,0.869c1.12,0 2.126,-0.16 3.033,-0.48c0.907,-0.32 1.356,-0.914 1.356,-1.775c0,-0.815 -0.396,-1.425 -1.189,-1.836c-0.792,-0.411 -1.806,-0.754 -3.033,-1.029c-1.227,-0.282 -2.537,-0.579 -3.932,-0.899c-1.394,-0.32 -2.705,-0.808 -3.932,-1.448c-1.227,-0.648 -2.233,-1.554 -3.033,-2.735c-0.792,-1.181 -1.189,-2.758 -1.189,-4.739c0,-1.844 0.373,-3.436 1.128,-4.77c0.754,-1.333 1.737,-2.431 2.964,-3.284c1.227,-0.861 2.629,-1.493 4.221,-1.905c1.585,-0.411 3.2,-0.61 4.831,-0.61c2.065,0 4.145,0.305 6.248,0.899c2.103,0.602 3.886,1.676 5.349,3.223l-5.928,5.867l-0.008,0.008Z" style="fill:#fff;fill-rule:nonzero;"/><path d="M510.144,402.342l-8.504,0l0,10.439c0,0.861 0.046,1.646 0.13,2.354c0.084,0.709 0.282,1.318 0.579,1.836c0.297,0.518 0.762,0.914 1.387,1.189c0.625,0.282 1.448,0.419 2.484,0.419c0.518,0 1.189,-0.053 2.027,-0.16c0.838,-0.107 1.471,-0.351 1.905,-0.739l0,8.054c-1.074,0.389 -2.194,0.648 -3.353,0.777c-1.158,0.13 -2.301,0.19 -3.414,0.19c-1.631,0 -3.139,-0.175 -4.511,-0.518c-1.379,-0.343 -2.575,-0.892 -3.612,-1.646c-1.029,-0.754 -1.836,-1.73 -2.415,-2.934c-0.579,-1.204 -0.869,-2.667 -0.869,-4.381l0,-14.889l-6.187,0l0,-7.734l6.187,0l0,-9.281l9.669,0l0,9.281l8.504,0l0,7.734l-0.008,0.008Z" style="fill:#fff;fill-rule:nonzero;"/><path d="M555.321,404.727c-0.472,-0.686 -1.135,-1.257 -1.996,-1.707c-0.861,-0.45 -1.783,-0.678 -2.774,-0.678c-2.446,0 -4.351,0.731 -5.707,2.194c-1.356,1.463 -2.027,3.376 -2.027,5.738c0,2.362 0.678,4.275 2.027,5.738c1.356,1.463 3.254,2.194 5.707,2.194c1.074,0 1.996,-0.236 2.774,-0.709c0.77,-0.472 1.44,-1.029 1.996,-1.676l6.378,6.705c-1.501,1.547 -3.276,2.629 -5.319,3.254c-2.042,0.625 -3.985,0.937 -5.829,0.937c-2.408,0 -4.671,-0.389 -6.797,-1.158c-2.126,-0.777 -3.977,-1.882 -5.54,-3.322c-1.57,-1.44 -2.804,-3.17 -3.703,-5.189c-0.899,-2.019 -1.356,-4.275 -1.356,-6.766c0,-2.492 0.45,-4.747 1.356,-6.766c0.899,-2.019 2.134,-3.749 3.703,-5.189c1.57,-1.44 3.414,-2.545 5.54,-3.322c2.126,-0.77 4.389,-1.158 6.797,-1.158c1.844,0 3.795,0.312 5.829,0.937c2.042,0.625 3.81,1.707 5.319,3.254l-6.378,6.705l0,-0.015Z" style="fill:#fff;fill-rule:nonzero;"/><path d="M564.023,410.266c0,-2.492 0.45,-4.747 1.356,-6.766c0.899,-2.019 2.134,-3.749 3.703,-5.189c1.57,-1.44 3.414,-2.545 5.54,-3.322c2.126,-0.77 4.389,-1.158 6.797,-1.158c2.408,0 4.671,0.389 6.797,1.158c2.126,0.777 3.97,1.882 5.54,3.322c1.57,1.44 2.804,3.17 3.703,5.189c0.899,2.019 1.356,4.275 1.356,6.766c0,2.492 -0.45,4.747 -1.356,6.766c-0.899,2.019 -2.141,3.749 -3.703,5.189c-1.57,1.44 -3.414,2.545 -5.54,3.322c-2.126,0.77 -4.397,1.158 -6.797,1.158c-2.4,0 -4.671,-0.389 -6.797,-1.158c-2.126,-0.777 -3.977,-1.882 -5.54,-3.322c-1.57,-1.44 -2.804,-3.17 -3.703,-5.189c-0.899,-2.019 -1.356,-4.275 -1.356,-6.766Zm9.669,0c0,2.362 0.678,4.275 2.027,5.738c1.356,1.463 3.254,2.194 5.707,2.194c2.454,0 4.351,-0.731 5.7,-2.194c1.356,-1.463 2.027,-3.376 2.027,-5.738c0,-2.362 -0.678,-4.275 -2.027,-5.738c-1.356,-1.463 -3.254,-2.194 -5.7,-2.194c-2.446,0 -4.351,0.731 -5.707,2.194c-1.356,1.463 -2.027,3.376 -2.027,5.738Z" style="fill:#fff;fill-rule:nonzero;"/><rect x="604.621" y="377.204" width="9.669" height="48.721" style="fill:#fff;fill-rule:nonzero;"/><rect x="621.377" y="377.204" width="9.669" height="48.721" style="fill:#fff;fill-rule:nonzero;"/><path d="M667.651,420.515c-1.547,1.974 -3.505,3.505 -5.867,4.572c-2.362,1.074 -4.816,1.608 -7.345,1.608c-2.53,0 -4.671,-0.389 -6.797,-1.158c-2.126,-0.777 -3.977,-1.882 -5.54,-3.322c-1.57,-1.44 -2.804,-3.17 -3.703,-5.189c-0.899,-2.019 -1.356,-4.275 -1.356,-6.766c0,-2.492 0.45,-4.747 1.356,-6.766c0.899,-2.019 2.134,-3.749 3.703,-5.189c1.57,-1.44 3.414,-2.545 5.54,-3.322c2.126,-0.77 4.389,-1.158 6.797,-1.158c2.233,0 4.267,0.389 6.088,1.158c1.829,0.777 3.376,1.882 4.64,3.322c1.265,1.44 2.248,3.17 2.934,5.189c0.686,2.019 1.029,4.275 1.029,6.766l0,3.033l-22.425,0c0.389,1.844 1.227,3.322 2.515,4.412c1.288,1.09 2.88,1.646 4.77,1.646c1.593,0 2.934,-0.358 4.031,-1.067c1.097,-0.709 2.05,-1.623 2.865,-2.735l6.766,4.96l0,0.008Zm-8.184,-13.792c0.046,-1.631 -0.495,-3.033 -1.608,-4.191c-1.12,-1.158 -2.56,-1.737 -4.32,-1.737c-1.074,0 -2.019,0.175 -2.835,0.518c-0.815,0.343 -1.516,0.785 -2.095,1.318c-0.579,0.541 -1.029,1.158 -1.356,1.867c-0.32,0.709 -0.503,1.448 -0.549,2.225l12.763,0Z" style="fill:#fff;fill-rule:nonzero;"/><path d="M696.202,404.727c-0.472,-0.686 -1.135,-1.257 -1.996,-1.707c-0.861,-0.45 -1.783,-0.678 -2.774,-0.678c-2.446,0 -4.351,0.731 -5.707,2.194c-1.356,1.463 -2.027,3.376 -2.027,5.738c0,2.362 0.678,4.275 2.027,5.738c1.356,1.463 3.254,2.194 5.707,2.194c1.074,0 1.996,-0.236 2.774,-0.709c0.77,-0.472 1.44,-1.029 1.996,-1.676l6.378,6.705c-1.501,1.547 -3.276,2.629 -5.319,3.254c-2.042,0.625 -3.985,0.937 -5.829,0.937c-2.408,0 -4.671,-0.389 -6.797,-1.158c-2.126,-0.777 -3.977,-1.882 -5.54,-3.322c-1.57,-1.44 -2.804,-3.17 -3.703,-5.189c-0.899,-2.019 -1.356,-4.275 -1.356,-6.766c0,-2.492 0.45,-4.747 1.356,-6.766c0.899,-2.019 2.134,-3.749 3.703,-5.189c1.57,-1.44 3.414,-2.545 5.54,-3.322c2.126,-0.77 4.389,-1.158 6.797,-1.158c1.844,0 3.795,0.312 5.829,0.937c2.042,0.625 3.81,1.707 5.319,3.254l-6.378,6.705l0,-0.015Z" style="fill:#fff;fill-rule:nonzero;"/><path d="M727.39,402.342l-8.504,0l0,10.439c0,0.861 0.046,1.646 0.13,2.354c0.084,0.709 0.282,1.318 0.579,1.836c0.297,0.518 0.762,0.914 1.387,1.189c0.625,0.282 1.448,0.419 2.484,0.419c0.518,0 1.189,-0.053 2.027,-0.16c0.838,-0.107 1.471,-0.351 1.905,-0.739l0,8.054c-1.074,0.389 -2.194,0.648 -3.353,0.777c-1.158,0.13 -2.301,0.19 -3.414,0.19c-1.631,0 -3.139,-0.175 -4.511,-0.518c-1.379,-0.343 -2.575,-0.892 -3.612,-1.646c-1.029,-0.754 -1.836,-1.73 -2.415,-2.934c-0.579,-1.204 -0.869,-2.667 -0.869,-4.381l0,-14.889l-6.187,0l0,-7.734l6.187,0l0,-9.281l9.669,0l0,9.281l8.504,0l0,7.734l-0.008,0.008Z" style="fill:#fff;fill-rule:nonzero;"/><path d="M731.642,384.748c0,-1.547 0.549,-2.865 1.646,-3.962c1.097,-1.097 2.415,-1.646 3.962,-1.646c1.547,0 2.865,0.549 3.962,1.646c1.097,1.097 1.646,2.415 1.646,3.962c0,1.547 -0.549,2.865 -1.646,3.962c-1.097,1.097 -2.415,1.646 -3.962,1.646c-1.547,0 -2.865,-0.549 -3.962,-1.646c-1.097,-1.097 -1.646,-2.415 -1.646,-3.962Zm0.777,9.86l9.669,0l0,31.317l-9.669,0l0,-31.317Z" style="fill:#fff;fill-rule:nonzero;"/><path d="M747.887,410.266c0,-2.492 0.45,-4.747 1.356,-6.766c0.899,-2.019 2.134,-3.749 3.703,-5.189c1.57,-1.44 3.414,-2.545 5.54,-3.322c2.126,-0.77 4.389,-1.158 6.797,-1.158c2.408,0 4.671,0.389 6.797,1.158c2.126,0.777 3.97,1.882 5.54,3.322c1.57,1.44 2.804,3.17 3.703,5.189c0.899,2.019 1.356,4.275 1.356,6.766c0,2.492 -0.45,4.747 -1.356,6.766c-0.899,2.019 -2.141,3.749 -3.703,5.189c-1.57,1.44 -3.414,2.545 -5.54,3.322c-2.126,0.77 -4.397,1.158 -6.797,1.158c-2.4,0 -4.671,-0.389 -6.797,-1.158c-2.126,-0.777 -3.977,-1.882 -5.54,-3.322c-1.57,-1.44 -2.804,-3.17 -3.703,-5.189c-0.899,-2.019 -1.356,-4.275 -1.356,-6.766Zm9.662,0c0,2.362 0.678,4.275 2.027,5.738c1.356,1.463 3.254,2.194 5.707,2.194c2.454,0 4.351,-0.731 5.7,-2.194c1.356,-1.463 2.027,-3.376 2.027,-5.738c0,-2.362 -0.678,-4.275 -2.027,-5.738c-1.356,-1.463 -3.254,-2.194 -5.7,-2.194c-2.446,0 -4.351,0.731 -5.707,2.194c-1.356,1.463 -2.027,3.376 -2.027,5.738Z" style="fill:#fff;fill-rule:nonzero;"/><path d="M788.355,394.608l9.281,0l0,4.252l0.13,0c0.297,-0.602 0.731,-1.204 1.288,-1.806c0.556,-0.602 1.227,-1.135 1.996,-1.608c0.777,-0.472 1.653,-0.861 2.644,-1.158c0.991,-0.297 2.065,-0.45 3.223,-0.45c2.446,0 4.427,0.373 5.928,1.128c1.501,0.754 2.675,1.791 3.513,3.124c0.838,1.333 1.41,2.903 1.707,4.701c0.297,1.806 0.45,3.764 0.45,5.867l0,17.274l-9.669,0l0,-15.339c0,-0.899 -0.03,-1.836 -0.099,-2.804c-0.061,-0.968 -0.259,-1.859 -0.579,-2.675c-0.32,-0.815 -0.815,-1.486 -1.486,-1.996c-0.663,-0.518 -1.623,-0.777 -2.865,-0.777c-1.242,0 -2.255,0.229 -3.033,0.678c-0.77,0.45 -1.364,1.052 -1.775,1.806c-0.411,0.754 -0.678,1.6 -0.808,2.545c-0.13,0.945 -0.19,1.935 -0.19,2.964l0,15.598l-9.669,0l0,-31.317l0.015,-0.008Z" style="fill:#fff;fill-rule:nonzero;"/><path d="M896.997,146.723c-26.44,8.176 -59.602,8.062 -50.153,46.016c9.875,-17.449 24.932,-29.138 41.969,-38.175c0.038,0.053 0.076,0.099 0.114,0.168c-24.025,19.148 -47.509,39.783 -53.102,72.898c-2.408,23.164 0.29,43.585 -12.702,63.145c-7.726,10.79 -17.739,16.702 -31.508,14.043c-16.238,-2.149 -24.2,-18.844 -23.697,-33.87c-0.785,-31.035 1.768,-62.322 -1.433,-93.197c-1.943,-21.625 -23.507,-31.95 -42.556,-23.065c-1.684,0.442 -2.172,1.646 -2.172,3.383c0.053,17.144 -0.152,28.117 0.061,45.261c0.053,3.802 0.754,8.26 -2.476,12.946c-6.919,10.012 -28.711,13.853 -38.51,5.913c-7.483,-6.065 -11.91,-17.182 -16.268,-25.48c-29.1,-63.35 -132.225,-59.99 -159.245,3.642c-7.955,17.396 -30.479,33.725 -46.854,16.878c-14.477,-13.898 -19.08,-34.837 -35.325,-47.326c-39.242,-31.584 -106.661,-23.911 -133.094,20.589c-22.417,30.395 -7.955,70.993 -28.368,101.754c-9.73,13.655 -18.455,31.012 -34.418,37.268c-0.389,-24.924 3.04,-145.765 -0.671,-171.779c-14.325,-11.872 -30.037,-6.134 -37.779,6.69c-39.112,-26.943 -101.845,-16.885 -126.922,25.32c-13.731,21.236 -20.162,62.855 -12.298,89.936c12.694,40.438 40.727,61.034 70.879,65.613c4.938,0.952 10.081,1.303 15.399,0.968c17.114,-0.411 34.182,-5.677 48.865,-15.118c-0.084,14.188 0.526,13.533 -18.943,18.554c-22.082,7.818 -52.668,9.746 -73.919,37.687c-17.891,21.137 -18.524,54.359 -0.091,75.085c22.897,23.248 63.381,23.766 89.341,5.334c33.176,-24.36 40.004,-70.703 45.017,-108.391c28.437,-12.893 44.24,-48.911 51.601,-78.978c35.805,114.06 194.128,72.959 175.078,-43.737c16.238,13.274 40.019,-2.956 47.433,-18.805c-12.786,32.62 -4.282,74.163 18.615,100.352c63.579,67.191 164.175,13.952 157.789,-77.295c16.847,6.903 39.729,-3.307 45.581,-16.405c-0.48,22.166 -0.64,45.787 -0.411,67.808c0.099,8.709 1.433,17.213 5.212,25.244c16.832,40.491 80.403,39.386 101.426,3.284c16.405,-26.669 15.514,-55.281 16.177,-85.623c-0.465,-12.428 3.795,-25.183 9.418,-35.256c10.195,1.844 25.397,9.418 32.849,-2.926c8.443,-15.384 4.427,-34.312 10.645,-50.465c-0.297,0.076 -0.434,0.114 -0.571,0.152l0.015,-0.038Zm-748.067,295.805c-16.459,9.41 -40.628,-0.884 -34.929,-22.059c9.662,-27.835 44.126,-35.036 68.166,-46.267c-3.597,24.627 -8.161,56.112 -33.23,68.326l-0.008,-0Zm25.93,-190.097c-0.274,20.893 -8.206,47.6 -32.757,49.643c-14.668,2.202 -29.001,-5.89 -35.683,-18.92c-13.776,-27.583 -12.824,-81.981 24.436,-89.844c35.317,-6.721 46.328,30.959 44.012,59.121l-0.008,0Zm228.157,0.754c-0.274,20.893 -8.206,47.6 -32.757,49.643c-14.668,2.202 -29.001,-5.89 -35.683,-18.92c-13.776,-27.583 -12.824,-81.981 24.436,-89.844c35.317,-6.721 46.328,30.959 44.012,59.121l-0.008,0Zm220.545,0c-0.274,20.893 -8.206,47.6 -32.757,49.643c-14.668,2.202 -29.001,-5.89 -35.683,-18.92c-13.776,-27.583 -12.824,-81.981 24.436,-89.844c35.317,-6.721 46.328,30.959 44.012,59.121l-0.008,0Z" style="fill:#fff;fill-rule:nonzero;"/><path d="M752.695,116.152c13.075,-2.682 16.222,-18.188 13.395,-29.496c-2.454,-14.036 -19.788,-16.588 -31.363,-12.992c-9.967,2.347 -12.847,11.498 -13.35,20.55c-0.457,18.455 14.79,26.334 31.317,21.937Z" style="fill:#fff;fill-rule:nonzero;"/><circle cx="189.087" cy="67.31" r="11.193" style="fill:#f3b01c;"/><circle cx="186.45" cy="122.241" r="11.193" style="fill:#f3b01c;"/><circle cx="216.335" cy="94.177" r="11.193" style="fill:#f3b01c;"/></g></g><g transform="matrix(333.333333,0,0,333.333333,1239.811198,966.666667)"></g><g transform="matrix(333.333333,0,0,333.333333,1339.288646,966.666667)"></g><g transform="matrix(333.333333,0,0,333.333333,1438.766094,966.666667)"></g><text x="266.667px" y="966.667px" style="font-family:'Georgia', serif;font-size:333.333px;fill:#fff;">Your oﬃce</text><text x="266.667px" y="1333.333px" style="font-family:'Georgia', serif;font-size:333.333px;fill:#84cba3;">can compost.</text><text x="266.667px" y="1550px" style="font-family:'Helvetica';font-size:83.333px;fill:#fff;fill-opacity:0.6;">A<tspan x="317.692px 340.845px " y="1550px 1550px "> m</tspan>anaged weekly kitchen scrap collection for Cape <tspan x="2215.356px 2257.023px 2303.369px " y="1550px 1550px 1550px ">Tow</tspan>n</text><g transform="matrix(83.333333,0,0,83.333333,334.700521,1650)"></g><g transform="matrix(83.333333,0,0,83.333333,357.85319,1650)"></g><text x="266.667px" y="1650px" style="font-family:'Helvetica';font-size:83.333px;fill:#fff;fill-opacity:0.6;">of<tspan x="334.701px " y="1650px ">ﬁ</tspan>ces and workplaces.</text><path d="M2666.667,1916.667l0,400c0,36.794 -29.872,66.667 -66.667,66.667l-2266.667,0c-36.794,0 -66.667,-29.872 -66.667,-66.667l0,-400c0,-36.794 29.872,-66.667 66.667,-66.667l2266.667,0c36.794,0 66.667,29.872 66.667,66.667Z" style="fill:#fbb718;fill-opacity:0.1;stroke:#fbb718;stroke-opacity:0.28;stroke-width:4.17px;"/><text x="400px" y="2050px" style="font-family:'Georgia', serif;font-size:183.333px;fill:#fbb718;">16 tonnes</text><g transform="matrix(66.666667,0,0,66.666667,1437.565104,2175)"></g><g transform="matrix(66.666667,0,0,66.666667,1456.08724,2175)"></g><text x="400px" y="2175px" style="font-family:'Helvetica';font-size:66.667px;fill:#fff;fill-opacity:0.72;">of organic waste diverted from landﬁll in 2025</text><text x="400px" y="2283.333px" style="font-family:'Helvetica';font-size:54.167px;fill:#fff;fill-opacity:0.4;">5.5 tonnes of compost created · emissions saving ≈ driving 37 000 km</text><path d="M266.667,2750l2650,0" style="fill:none;fill-rule:nonzero;stroke:#fff;stroke-opacity:0.1;stroke-width:3.13px;"/><text x="266.667px" y="2841.667px" style="font-family:'Helvetica';font-size:50px;fill:#fff;fill-opacity:0.28;">gooi.me · howzit@gooi.me · 083 635 3126</text></svg>