<?xml version="1.0" encoding="UTF-8" standalone="no"?><!DOCTYPE svg PUBLIC "-//W3C//DTD SVG 1.1//EN" "http://www.w3.org/Graphics/SVG/1.1/DTD/svg11.dtd"><svg width="100%" height="100%" viewBox="0 0 1280 720" version="1.1" xmlns="http://www.w3.org/2000/svg" xmlns:xlink="http://www.w3.org/1999/xlink" xml:space="preserve" xmlns:serif="http://www.serif.com/" style="fill-rule:evenodd;clip-rule:evenodd;"><rect x="0" y="0" width="1280" height="720" style="fill:#013f3a;"/><rect x="0" y="0" width="1280" height="390" style="fill:#fff;"/><text x="36px" y="52px" style="font-family:'Helvetica-Bold', 'Helvetica';font-weight:700;font-size:10px;fill:#108a63;">H<tspan x="43.472px 51.5px 61.188px 64.217px 71.137px 78.608px 81.637px 89.108px 92.137px 99.608px 107.637px 110.665px 120.354px 128.382px 135.854px 143.325px " y="52px 52px 52px 52px 52px 52px 52px 52px 52px 52px 52px 52px 52px 52px 52px 52px ">OW PRICING WORKS</tspan></text><text x="36px" y="100px" style="font-family:'Georgia', serif;font-size:46px;fill:#013f3a;">Three simple components.</text><path d="M406,148l0,198c0,8.831 -7.169,16 -16,16l-338,0c-8.831,0 -16,-7.169 -16,-16l0,-198c0,-8.831 7.169,-16 16,-16l338,0c8.831,0 16,7.169 16,16Z" style="fill:#fff;stroke:#e8eeec;stroke-width:1.5px;"/><path d="M406,135c0,1.656 -1.344,3 -3,3l-364,0c-1.656,0 -3,-1.344 -3,-3c0,-1.656 1.344,-3 3,-3l364,0c1.656,0 3,1.344 3,3Z" style="fill:#013f3a;"/><text x="200px" y="220px" style="font-family:'AppleColorEmoji', 'Apple Color Emoji';font-size:42px;">🚛</text><text x="132.633px" y="264px" style="font-family:'Georgia', serif;font-size:19px;fill:#013f3a;">Weekly collection fee</text><g transform="matrix(13,0,0,13,154.533691,292)"></g><g transform="matrix(13,0,0,13,158.145508,292)"></g><text x="142.962px" y="292px" style="font-family:'Helvetica';font-size:13px;fill:#525560;">A<tspan x="150.922px 154.534px " y="292px 292px "> ﬁ</tspan>xed fee per weekly visit.</text><text x="126.191px" y="310px" style="font-family:'Helvetica';font-size:13px;fill:#525560;">Covers <tspan x="170.27px 178.94px " y="310px 310px ">Al</tspan>fred&apos;s collection service</text><text x="127.175px" y="328px" style="font-family:'Helvetica';font-size:13px;fill:#525560;">regardless of volume on the day<tspan x="311.213px " y="328px ">.</tspan></text><path d="M346,354c0,6.623 -5.377,12 -12,12l-226,0c-6.623,0 -12,-5.377 -12,-12c0,-6.623 5.377,-12 12,-12l226,0c6.623,0 12,5.377 12,12Z" style="fill:#f0f7f4;"/><g transform="matrix(11,0,0,11,186.536334,358)"></g><g transform="matrix(11,0,0,11,190.214444,358)"></g><text x="155.165px" y="358px" style="font-family:'Helvetica-Bold', 'Helvetica';font-weight:700;font-size:11px;fill:#108a63;">Per <tspan x="176.088px " y="358px ">o</tspan>fﬁc<tspan x="199.439px " y="358px ">e</tspan> · <tspan x="214.857px " y="358px ">p</tspan>er <tspan x="235.163px " y="358px ">c</tspan>oll<tspan x="254.244px " y="358px ">e</tspan>cti<tspan x="273.331px " y="358px ">o</tspan>n</text><path d="M825,148l0,198c0,8.831 -7.169,16 -16,16l-338,0c-8.831,0 -16,-7.169 -16,-16l0,-198c0,-8.831 7.169,-16 16,-16l338,0c8.831,0 16,7.169 16,16Z" style="fill:#fff;stroke:#e8eeec;stroke-width:1.5px;"/><path d="M825,135c0,1.656 -1.344,3 -3,3l-364,0c-1.656,0 -3,-1.344 -3,-3c0,-1.656 1.344,-3 3,-3l364,0c1.656,0 3,1.344 3,3Z" style="fill:#108a63;"/><text x="619px" y="220px" style="font-family:'AppleColorEmoji', 'Apple Color Emoji';font-size:42px;">⚖️</text><text x="545.756px" y="264px" style="font-family:'Georgia', serif;font-size:19px;fill:#013f3a;">Volume processing fee</text><text x="539.786px" y="292px" style="font-family:'Helvetica';font-size:13px;fill:#525560;">Charged per 45L<tspan x="636.88px 640.492px " y="292px 292px "> c</tspan>ollection bucket,</text><text x="540.881px" y="310px" style="font-family:'Helvetica';font-size:13px;fill:#525560;">per month. 45L<tspan x="627.851px 631.462px " y="310px 310px "> s</tspan>tarter buckets are</text><text x="537.387px" y="328px" style="font-family:'Helvetica';font-size:13px;fill:#525560;">R210 each — a one-time purchase.</text><path d="M794,354c0,6.623 -5.377,12 -12,12l-284,0c-6.623,0 -12,-5.377 -12,-12c0,-6.623 5.377,-12 12,-12l284,0c6.623,0 12,5.377 12,12Z" style="fill:#f0f7f4;"/><text x="527.178px" y="358px" style="font-family:'Helvetica-Bold', 'Helvetica';font-weight:700;font-size:11px;fill:#108a63;">R210<tspan x="553.607px " y="358px ">/</tspan>buc<tspan x="576.351px " y="358px ">k</tspan>et <tspan x="595.438px " y="358px ">o</tspan>nce<tspan x="621.244px " y="358px "> </tspan>· t<tspan x="634.207px " y="358px ">h</tspan>en <tspan x="656.952px " y="358px ">p</tspan>roc<tspan x="680.92px " y="358px ">e</tspan>ssi<tspan x="702.462px " y="358px ">n</tspan>g/m<tspan x="728.869px " y="358px ">o</tspan>nth</text><path d="M1244,148l0,198c0,8.831 -7.169,16 -16,16l-338,0c-8.831,0 -16,-7.169 -16,-16l0,-198c0,-8.831 7.169,-16 16,-16l338,0c8.831,0 16,7.169 16,16Z" style="fill:#fff;stroke:#e8eeec;stroke-width:1.5px;"/><path d="M1244,135c0,1.656 -1.344,3 -3,3l-364,0c-1.656,0 -3,-1.344 -3,-3c0,-1.656 1.344,-3 3,-3l364,0c1.656,0 3,1.344 3,3Z" style="fill:#fbb718;"/><text x="1038px" y="220px" style="font-family:'AppleColorEmoji', 'Apple Color Emoji';font-size:42px;">🪣</text><text x="991.837px" y="264px" style="font-family:'Georgia', serif;font-size:19px;fill:#013f3a;">Kitchen buckets</text><path d="M1028,285c0,6.071 -4.929,11 -11,11l-72,0c-6.071,0 -11,-4.929 -11,-11c0,-6.071 4.929,-11 11,-11l72,0c6.071,0 11,4.929 11,11Z" style="fill:#fbb718;fill-opacity:0.15;"/><text x="954.967px" y="289px" style="font-family:'Helvetica-Bold', 'Helvetica';font-weight:700;font-size:10px;fill:#013f3a;">OPT<tspan x="975.674px " y="289px ">I</tspan>ON<tspan x="993.602px " y="289px ">A</tspan>L</text><g transform="matrix(13,0,0,13,1136.206543,320)"></g><g transform="matrix(13,0,0,13,1139.818359,320)"></g><text x="961.563px" y="320px" style="font-family:'Helvetica';font-size:13px;fill:#525560;">Countertop buckets for your of<tspan x="1136.207px " y="320px ">ﬁ</tspan>ce</text><text x="982.051px" y="338px" style="font-family:'Helvetica';font-size:13px;fill:#525560;">kitchen — a one-time cost.</text><path d="M1184,360c0,6.623 -5.377,12 -12,12l-226,0c-6.623,0 -12,-5.377 -12,-12c0,-6.623 5.377,-12 12,-12l226,0c6.623,0 12,5.377 12,12Z" style="fill:#fbb718;fill-opacity:0.1;"/><text x="1001.483px" y="364px" style="font-family:'Helvetica-Bold', 'Helvetica';font-weight:700;font-size:11px;fill:#013f3a;">Per <tspan x="1022.407px " y="364px ">k</tspan>itc<tspan x="1041.493px " y="364px ">h</tspan>en <tspan x="1064.238px " y="364px ">·</tspan> on<tspan x="1083.92px " y="364px ">e</tspan>-ti<tspan x="1100.552px " y="364px ">m</tspan>e</text><path d="M580,428l0,36c0,6.623 -5.377,12 -12,12l-520,0c-6.623,0 -12,-5.377 -12,-12l0,-36c0,-6.623 5.377,-12 12,-12l520,0c6.623,0 12,5.377 12,12Z" style="fill:#84cba3;fill-opacity:0.12;stroke:#84cba3;stroke-opacity:0.25;stroke-width:0.75px;"/><text x="64px" y="443px" style="font-family:'Helvetica-Bold', 'Helvetica';font-weight:700;font-size:13.5px;fill:#fff;">6-month subscription (best rate) or month-to-month.</text><text x="64px" y="463px" style="font-family:'Helvetica';font-size:12.5px;fill:#fff;fill-opacity:0.55;">Starter bucket cost paid of<tspan x="208.995px 212.468px " y="463px 463px ">f </tspan>after 6 months — ongoing rate is lower<tspan x="429.948px " y="463px ">.</tspan></text><text x="36px" y="530px" style="font-family:'Georgia', serif;font-size:38px;fill:#fff;">Ready to get a quote?</text><g transform="matrix(17,0,0,17,98.056641,566)"></g><g transform="matrix(17,0,0,17,102.779785,566)"></g><text x="36px" y="566px" style="font-family:'Helvetica';font-size:17px;fill:#fff;fill-opacity:0.62;">Every of<tspan x="98.057px " y="566px ">ﬁ</tspan>ce is dif<tspan x="163.89px 168.613px " y="566px 566px ">fe</tspan>rent — we&apos;ll size it for your team.</text><path d="M346,624c0,15.454 -12.546,28 -28,28l-254,0c-15.454,0 -28,-12.546 -28,-28c0,-15.454 12.546,-28 28,-28l254,0c15.454,0 28,12.546 28,28Z" style="fill:#fbb718;"/><text x="127.648px" y="629px" style="font-family:'Helvetica-Bold', 'Helvetica';font-weight:700;font-size:16px;fill:#013f3a;">howzit@gooi.me</text><path d="M624,624c0,15.454 -12.546,28 -28,28l-204,0c-15.454,0 -28,-12.546 -28,-28c0,-15.454 12.546,-28 28,-28l204,0c15.454,0 28,12.546 28,28Z" style="fill:#fff;fill-opacity:0.1;stroke:#fff;stroke-opacity:0.28;stroke-width:1.5px;"/><text x="445.062px" y="629px" style="font-family:'Helvetica-Bold', 'Helvetica';font-weight:700;font-size:16px;fill:#fff;">083 635 3126</text><path d="M1244,426l0,238c0,8.831 -7.169,16 -16,16l-512,0c-8.831,0 -16,-7.169 -16,-16l0,-238c0,-8.831 7.169,-16 16,-16l512,0c8.831,0 16,7.169 16,16Z" style="fill:#84cba3;fill-opacity:0.08;stroke:#84cba3;stroke-opacity:0.2;stroke-width:1px;"/><text x="722px" y="450px" style="font-family:'Helvetica-Bold', 'Helvetica';font-weight:700;font-size:10px;fill:#84cba3;fill-opacity:0.8;">W<tspan x="731.638px 739.06px 745.754px 748.733px 751.711px 758.019px 760.998px 770.636px 778.614px 786.036px 793.458px " y="450px 450px 450px 450px 450px 450px 450px 450px 450px 450px 450px ">HY IT WORKS</tspan></text><text x="722px" y="492px" style="font-family:'Georgia', serif;font-size:24px;fill:#fff;">Low friction, real impact.</text><text x="722px" y="522px" style="font-family:'Georgia', serif;font-size:24px;fill:#84cba3;">Your team does the easy part.</text><text x="722px" y="556px" style="font-family:'Helvetica';font-size:14px;fill:#fff;fill-opacity:0.55;">Scraps go in the kitchen bucket. <tspan x="923.571px 932.909px " y="556px 556px ">Al</tspan>fred collects.</text><text x="722px" y="576px" style="font-family:'Helvetica';font-size:14px;fill:#fff;fill-opacity:0.55;">Local farms get the compost. <tspan x="905.395px 913.447px 921.233px " y="576px 576px 576px ">You</tspan> get the numbers.</text><path d="M1014,615c0,8.279 -6.721,15 -15,15l-262,0c-8.279,0 -15,-6.721 -15,-15c0,-8.279 6.721,-15 15,-15l262,0c8.279,0 15,6.721 15,15Z" style="fill:#84cba3;fill-opacity:0.15;stroke:#84cba3;stroke-opacity:0.3;stroke-width:0.75px;"/><text x="792.484px" y="619px" style="font-family:'Helvetica-Bold', 'Helvetica';font-weight:700;font-size:12px;fill:#84cba3;">gooi.me · howzit@gooi.me</text></svg>