<?xml version="1.0" encoding="UTF-8" standalone="no"?><!DOCTYPE svg PUBLIC "-//W3C//DTD SVG 1.1//EN" "http://www.w3.org/Graphics/SVG/1.1/DTD/svg11.dtd"><svg width="100%" height="100%" viewBox="0 0 5334 3000" version="1.1" xmlns="http://www.w3.org/2000/svg" xmlns:xlink="http://www.w3.org/1999/xlink" xml:space="preserve" xmlns:serif="http://www.serif.com/" style="fill-rule:evenodd;clip-rule:evenodd;stroke-linejoin:round;stroke-miterlimit:2;"><rect x="0" y="0" width="5333.333" height="3000" style="fill:#f4f4f4;"/><rect x="0" y="0" width="5333.333" height="416.667" style="fill:#013f3a;"/><text x="266.667px" y="175px" style="font-family:'Helvetica-Bold', 'Helvetica';font-weight:700;font-size:41.667px;fill:#84cba3;fill-opacity:0.8;">T<tspan x="293.16px 324.292px 353.125px 365.743px 394.576px 423.409px 453.809px 482.642px 495.26px 526.392px " y="175px 175px 175px 175px 175px 175px 175px 175px 175px 175px ">HE SERVICE</tspan></text><g transform="matrix(166.666667,0,0,166.666667,1174.05599,333.333333)"></g><g transform="matrix(166.666667,0,0,166.666667,1223.794714,333.333333)"></g><g transform="matrix(166.666667,0,0,166.666667,1273.533438,333.333333)"></g><text x="266.667px" y="333.333px" style="font-family:'Georgia', serif;font-size:166.667px;fill:#fff;">What your oﬃce gets.</text><clipPath id="_clip1"><rect x="4500.368" y="66.499" width="505.542" height="252.185"/></clipPath><g clip-path="url(#_clip1)"><g id="Layer_1-2"><path d="M4635.53,273.502c-0.281,-0.407 -0.674,-0.747 -1.185,-1.013c-0.511,-0.267 -1.059,-0.403 -1.647,-0.403c-1.452,0 -2.584,0.434 -3.389,1.303c-0.805,0.869 -1.204,2.004 -1.204,3.407c0,1.403 0.403,2.538 1.204,3.407c0.805,0.869 1.932,1.303 3.389,1.303c0.638,0 1.185,-0.14 1.647,-0.421c0.457,-0.281 0.855,-0.611 1.185,-0.995l3.787,3.982c-0.891,0.918 -1.946,1.561 -3.158,1.932c-1.213,0.371 -2.366,0.557 -3.461,0.557c-1.43,0 -2.774,-0.231 -4.036,-0.688c-1.262,-0.462 -2.362,-1.118 -3.289,-1.973c-0.932,-0.855 -1.665,-1.882 -2.199,-3.081c-0.534,-1.199 -0.805,-2.538 -0.805,-4.018c0,-1.48 0.267,-2.819 0.805,-4.018c0.534,-1.199 1.267,-2.226 2.199,-3.081c0.932,-0.855 2.027,-1.511 3.289,-1.973c1.262,-0.457 2.606,-0.688 4.036,-0.688c1.095,0 2.253,0.186 3.461,0.557c1.213,0.371 2.262,1.013 3.158,1.932l-3.787,3.982l0,-0.009Z" style="fill:#fff;fill-rule:nonzero;"/><path d="M4640.697,276.791c0,-1.48 0.267,-2.819 0.805,-4.018c0.534,-1.199 1.267,-2.226 2.199,-3.081c0.932,-0.855 2.027,-1.511 3.289,-1.973c1.262,-0.457 2.606,-0.688 4.036,-0.688c1.43,0 2.774,0.231 4.036,0.688c1.262,0.462 2.357,1.118 3.289,1.973c0.932,0.855 1.665,1.882 2.199,3.081c0.534,1.199 0.805,2.538 0.805,4.018c0,1.48 -0.267,2.819 -0.805,4.018c-0.534,1.199 -1.271,2.226 -2.199,3.081c-0.932,0.855 -2.027,1.511 -3.289,1.973c-1.262,0.457 -2.611,0.688 -4.036,0.688c-1.425,0 -2.774,-0.231 -4.036,-0.688c-1.262,-0.462 -2.362,-1.118 -3.289,-1.973c-0.932,-0.855 -1.665,-1.882 -2.199,-3.081c-0.534,-1.199 -0.805,-2.538 -0.805,-4.018Zm5.742,0c0,1.403 0.403,2.538 1.204,3.407c0.805,0.869 1.932,1.303 3.389,1.303c1.457,0 2.584,-0.434 3.384,-1.303c0.805,-0.869 1.204,-2.004 1.204,-3.407c0,-1.403 -0.403,-2.538 -1.204,-3.407c-0.805,-0.869 -1.932,-1.303 -3.384,-1.303c-1.452,0 -2.584,0.434 -3.389,1.303c-0.805,0.869 -1.204,2.004 -1.204,3.407Z" style="fill:#fff;fill-rule:nonzero;"/><path d="M4664.727,267.494l5.511,0l0,2.525l0.077,0c0.176,-0.357 0.434,-0.715 0.765,-1.072c0.33,-0.357 0.728,-0.674 1.185,-0.955c0.462,-0.281 0.982,-0.511 1.57,-0.688c0.588,-0.176 1.226,-0.267 1.914,-0.267c1.303,0 2.457,0.267 3.461,0.805c1.009,0.534 1.765,1.375 2.276,2.525c0.665,-1.199 1.466,-2.054 2.412,-2.565c0.941,-0.511 2.104,-0.765 3.484,-0.765c1.249,0 2.303,0.213 3.158,0.633c0.855,0.421 1.529,0.995 2.027,1.724c0.498,0.728 0.855,1.584 1.072,2.565c0.217,0.982 0.326,2.036 0.326,3.158l0,10.981l-5.742,0l0,-10.832c0,-0.869 -0.186,-1.615 -0.557,-2.24c-0.371,-0.624 -1.027,-0.937 -1.973,-0.937c-0.665,0 -1.217,0.109 -1.665,0.326c-0.448,0.217 -0.805,0.516 -1.072,0.9c-0.267,0.385 -0.462,0.828 -0.575,1.339c-0.113,0.511 -0.172,1.045 -0.172,1.606l0,9.836l-5.742,0l0,-9.836c0,-0.33 -0.014,-0.738 -0.036,-1.226c-0.027,-0.484 -0.113,-0.946 -0.267,-1.375c-0.154,-0.434 -0.403,-0.805 -0.747,-1.109c-0.344,-0.308 -0.851,-0.462 -1.511,-0.462c-0.742,0 -1.339,0.136 -1.801,0.403c-0.457,0.267 -0.81,0.624 -1.054,1.072c-0.244,0.448 -0.403,0.95 -0.48,1.511c-0.077,0.561 -0.113,1.149 -0.113,1.76l0,9.262l-5.742,0l0,-18.596l0.009,-0.009Z" style="fill:#fff;fill-rule:nonzero;"/><path d="M4698.557,267.494l5.28,0l0,2.448l0.077,0c0.231,-0.33 0.529,-0.67 0.9,-1.013c0.371,-0.344 0.805,-0.656 1.303,-0.937c0.498,-0.281 1.041,-0.511 1.624,-0.688c0.588,-0.176 1.213,-0.267 1.873,-0.267c1.375,0 2.629,0.235 3.751,0.706c1.122,0.471 2.086,1.136 2.891,1.991c0.805,0.855 1.421,1.869 1.855,3.04c0.434,1.172 0.652,2.461 0.652,3.864c0,1.303 -0.199,2.543 -0.593,3.733c-0.398,1.185 -0.955,2.24 -1.683,3.158c-0.728,0.918 -1.615,1.651 -2.66,2.199c-1.045,0.547 -2.231,0.823 -3.561,0.823c-1.199,0 -2.317,-0.186 -3.348,-0.557c-1.032,-0.371 -1.882,-1 -2.543,-1.896l-0.077,0l0,10.714l-5.742,0l0,-27.324l0,0.005Zm5.28,9.298c0,1.403 0.403,2.538 1.204,3.407c0.805,0.869 1.932,1.303 3.384,1.303c1.452,0 2.584,-0.434 3.389,-1.303c0.805,-0.869 1.204,-2.004 1.204,-3.407c0,-1.403 -0.403,-2.538 -1.204,-3.407c-0.805,-0.869 -1.932,-1.303 -3.389,-1.303c-1.457,0 -2.584,0.434 -3.384,1.303c-0.805,0.869 -1.204,2.004 -1.204,3.407Z" style="fill:#fff;fill-rule:nonzero;"/><path d="M4721.442,276.791c0,-1.48 0.267,-2.819 0.805,-4.018c0.534,-1.199 1.267,-2.226 2.199,-3.081c0.932,-0.855 2.027,-1.511 3.289,-1.973c1.262,-0.457 2.606,-0.688 4.036,-0.688c1.43,0 2.774,0.231 4.036,0.688c1.262,0.462 2.357,1.118 3.289,1.973c0.932,0.855 1.665,1.882 2.199,3.081c0.534,1.199 0.805,2.538 0.805,4.018c0,1.48 -0.267,2.819 -0.805,4.018c-0.534,1.199 -1.271,2.226 -2.199,3.081c-0.932,0.855 -2.027,1.511 -3.289,1.973c-1.262,0.457 -2.611,0.688 -4.036,0.688c-1.425,0 -2.774,-0.231 -4.036,-0.688c-1.262,-0.462 -2.362,-1.118 -3.289,-1.973c-0.932,-0.855 -1.665,-1.882 -2.199,-3.081c-0.534,-1.199 -0.805,-2.538 -0.805,-4.018Zm5.737,0c0,1.403 0.403,2.538 1.204,3.407c0.805,0.869 1.932,1.303 3.389,1.303c1.457,0 2.584,-0.434 3.384,-1.303c0.805,-0.869 1.204,-2.004 1.204,-3.407c0,-1.403 -0.403,-2.538 -1.204,-3.407c-0.805,-0.869 -1.932,-1.303 -3.384,-1.303c-1.452,0 -2.584,0.434 -3.389,1.303c-0.805,0.869 -1.204,2.004 -1.204,3.407Z" style="fill:#fff;fill-rule:nonzero;"/><path d="M4755.996,272.964c-0.842,-1.045 -1.95,-1.57 -3.33,-1.57c-0.484,0 -0.955,0.113 -1.416,0.344c-0.462,0.231 -0.688,0.624 -0.688,1.185c0,0.457 0.235,0.796 0.706,1.013c0.471,0.217 1.072,0.407 1.801,0.575c0.728,0.167 1.507,0.344 2.335,0.534c0.828,0.19 1.606,0.493 2.335,0.9c0.728,0.407 1.326,0.964 1.801,1.665c0.471,0.701 0.706,1.638 0.706,2.814c0,1.176 -0.262,2.19 -0.783,2.964c-0.525,0.778 -1.194,1.403 -2.009,1.873c-0.819,0.471 -1.733,0.805 -2.755,0.995c-1.023,0.19 -2.027,0.285 -3.022,0.285c-1.303,0 -2.615,-0.186 -3.941,-0.557c-1.326,-0.371 -2.448,-1.027 -3.366,-1.973l3.484,-3.864c0.534,0.665 1.131,1.167 1.778,1.511c0.652,0.344 1.412,0.516 2.276,0.516c0.665,0 1.262,-0.095 1.801,-0.285c0.538,-0.19 0.805,-0.543 0.805,-1.054c0,-0.484 -0.235,-0.846 -0.706,-1.09c-0.471,-0.244 -1.072,-0.448 -1.801,-0.611c-0.728,-0.167 -1.507,-0.344 -2.335,-0.534c-0.828,-0.19 -1.606,-0.48 -2.335,-0.86c-0.728,-0.385 -1.326,-0.923 -1.801,-1.624c-0.471,-0.701 -0.706,-1.638 -0.706,-2.814c0,-1.095 0.222,-2.041 0.67,-2.832c0.448,-0.792 1.032,-1.443 1.76,-1.95c0.728,-0.511 1.561,-0.887 2.507,-1.131c0.941,-0.244 1.9,-0.362 2.869,-0.362c1.226,0 2.461,0.181 3.71,0.534c1.249,0.357 2.308,0.995 3.176,1.914l-3.52,3.484l-0.005,0.005Z" style="fill:#fff;fill-rule:nonzero;"/><path d="M4775.854,272.086l-5.049,0l0,6.199c0,0.511 0.027,0.977 0.077,1.398c0.05,0.421 0.167,0.783 0.344,1.09c0.176,0.308 0.452,0.543 0.823,0.706c0.371,0.167 0.86,0.249 1.475,0.249c0.308,0 0.706,-0.032 1.204,-0.095c0.498,-0.063 0.873,-0.208 1.131,-0.439l0,4.782c-0.638,0.231 -1.303,0.385 -1.991,0.462c-0.688,0.077 -1.366,0.113 -2.027,0.113c-0.968,0 -1.864,-0.104 -2.679,-0.308c-0.819,-0.204 -1.529,-0.529 -2.145,-0.977c-0.611,-0.448 -1.09,-1.027 -1.434,-1.742c-0.344,-0.715 -0.516,-1.584 -0.516,-2.602l0,-8.841l-3.674,0l0,-4.592l3.674,0l0,-5.511l5.742,0l0,5.511l5.049,0l0,4.592l-0.005,0.005Z" style="fill:#fff;fill-rule:nonzero;"/><path d="M4802.681,273.502c-0.281,-0.407 -0.674,-0.747 -1.185,-1.013c-0.511,-0.267 -1.059,-0.403 -1.647,-0.403c-1.452,0 -2.584,0.434 -3.389,1.303c-0.805,0.869 -1.204,2.004 -1.204,3.407c0,1.403 0.403,2.538 1.204,3.407c0.805,0.869 1.932,1.303 3.389,1.303c0.638,0 1.185,-0.14 1.647,-0.421c0.457,-0.281 0.855,-0.611 1.185,-0.995l3.787,3.982c-0.891,0.918 -1.946,1.561 -3.158,1.932c-1.213,0.371 -2.366,0.557 -3.461,0.557c-1.43,0 -2.774,-0.231 -4.036,-0.688c-1.262,-0.462 -2.362,-1.118 -3.289,-1.973c-0.932,-0.855 -1.665,-1.882 -2.199,-3.081c-0.534,-1.199 -0.805,-2.538 -0.805,-4.018c0,-1.48 0.267,-2.819 0.805,-4.018c0.534,-1.199 1.267,-2.226 2.199,-3.081c0.932,-0.855 2.027,-1.511 3.289,-1.973c1.262,-0.457 2.606,-0.688 4.036,-0.688c1.095,0 2.253,0.186 3.461,0.557c1.213,0.371 2.262,1.013 3.158,1.932l-3.787,3.982l0,-0.009Z" style="fill:#fff;fill-rule:nonzero;"/><path d="M4807.848,276.791c0,-1.48 0.267,-2.819 0.805,-4.018c0.534,-1.199 1.267,-2.226 2.199,-3.081c0.932,-0.855 2.027,-1.511 3.289,-1.973c1.262,-0.457 2.606,-0.688 4.036,-0.688c1.43,0 2.774,0.231 4.036,0.688c1.262,0.462 2.357,1.118 3.289,1.973c0.932,0.855 1.665,1.882 2.199,3.081c0.534,1.199 0.805,2.538 0.805,4.018c0,1.48 -0.267,2.819 -0.805,4.018c-0.534,1.199 -1.271,2.226 -2.199,3.081c-0.932,0.855 -2.027,1.511 -3.289,1.973c-1.262,0.457 -2.611,0.688 -4.036,0.688c-1.425,0 -2.774,-0.231 -4.036,-0.688c-1.262,-0.462 -2.362,-1.118 -3.289,-1.973c-0.932,-0.855 -1.665,-1.882 -2.199,-3.081c-0.534,-1.199 -0.805,-2.538 -0.805,-4.018Zm5.742,0c0,1.403 0.403,2.538 1.204,3.407c0.805,0.869 1.932,1.303 3.389,1.303c1.457,0 2.584,-0.434 3.384,-1.303c0.805,-0.869 1.204,-2.004 1.204,-3.407c0,-1.403 -0.403,-2.538 -1.204,-3.407c-0.805,-0.869 -1.932,-1.303 -3.384,-1.303c-1.452,0 -2.584,0.434 -3.389,1.303c-0.805,0.869 -1.204,2.004 -1.204,3.407Z" style="fill:#fff;fill-rule:nonzero;"/><rect x="4831.954" y="257.159" width="5.742" height="28.93" style="fill:#fff;fill-rule:nonzero;"/><rect x="4841.904" y="257.159" width="5.742" height="28.93" style="fill:#fff;fill-rule:nonzero;"/><path d="M4869.381,282.877c-0.918,1.172 -2.081,2.081 -3.484,2.715c-1.403,0.638 -2.86,0.955 -4.362,0.955c-1.502,0 -2.774,-0.231 -4.036,-0.688c-1.262,-0.462 -2.362,-1.118 -3.289,-1.973c-0.932,-0.855 -1.665,-1.882 -2.199,-3.081c-0.534,-1.199 -0.805,-2.538 -0.805,-4.018c0,-1.48 0.267,-2.819 0.805,-4.018c0.534,-1.199 1.267,-2.226 2.199,-3.081c0.932,-0.855 2.027,-1.511 3.289,-1.973c1.262,-0.457 2.606,-0.688 4.036,-0.688c1.326,0 2.534,0.231 3.615,0.688c1.086,0.462 2.004,1.118 2.755,1.973c0.751,0.855 1.335,1.882 1.742,3.081c0.407,1.199 0.611,2.538 0.611,4.018l0,1.801l-13.316,0c0.231,1.095 0.728,1.973 1.493,2.62c0.765,0.647 1.71,0.977 2.832,0.977c0.946,0 1.742,-0.213 2.393,-0.633c0.652,-0.421 1.217,-0.964 1.701,-1.624l4.018,2.945l0,0.005Zm-4.859,-8.189c0.027,-0.968 -0.294,-1.801 -0.955,-2.489c-0.665,-0.688 -1.52,-1.032 -2.565,-1.032c-0.638,0 -1.199,0.104 -1.683,0.308c-0.484,0.204 -0.9,0.466 -1.244,0.783c-0.344,0.321 -0.611,0.688 -0.805,1.109c-0.19,0.421 -0.299,0.86 -0.326,1.321l7.579,0Z" style="fill:#fff;fill-rule:nonzero;"/><path d="M4886.335,273.502c-0.281,-0.407 -0.674,-0.747 -1.185,-1.013c-0.511,-0.267 -1.059,-0.403 -1.647,-0.403c-1.452,0 -2.584,0.434 -3.389,1.303c-0.805,0.869 -1.204,2.004 -1.204,3.407c0,1.403 0.403,2.538 1.204,3.407c0.805,0.869 1.932,1.303 3.389,1.303c0.638,0 1.185,-0.14 1.647,-0.421c0.457,-0.281 0.855,-0.611 1.185,-0.995l3.787,3.982c-0.891,0.918 -1.946,1.561 -3.158,1.932c-1.213,0.371 -2.366,0.557 -3.461,0.557c-1.43,0 -2.774,-0.231 -4.036,-0.688c-1.262,-0.462 -2.362,-1.118 -3.289,-1.973c-0.932,-0.855 -1.665,-1.882 -2.199,-3.081c-0.534,-1.199 -0.805,-2.538 -0.805,-4.018c0,-1.48 0.267,-2.819 0.805,-4.018c0.534,-1.199 1.267,-2.226 2.199,-3.081c0.932,-0.855 2.027,-1.511 3.289,-1.973c1.262,-0.457 2.606,-0.688 4.036,-0.688c1.095,0 2.253,0.186 3.461,0.557c1.213,0.371 2.262,1.013 3.158,1.932l-3.787,3.982l0,-0.009Z" style="fill:#fff;fill-rule:nonzero;"/><path d="M4904.854,272.086l-5.049,0l0,6.199c0,0.511 0.027,0.977 0.077,1.398c0.05,0.421 0.167,0.783 0.344,1.09c0.176,0.308 0.452,0.543 0.823,0.706c0.371,0.167 0.86,0.249 1.475,0.249c0.308,0 0.706,-0.032 1.204,-0.095c0.498,-0.063 0.873,-0.208 1.131,-0.439l0,4.782c-0.638,0.231 -1.303,0.385 -1.991,0.462c-0.688,0.077 -1.366,0.113 -2.027,0.113c-0.968,0 -1.864,-0.104 -2.679,-0.308c-0.819,-0.204 -1.529,-0.529 -2.145,-0.977c-0.611,-0.448 -1.09,-1.027 -1.434,-1.742c-0.344,-0.715 -0.516,-1.584 -0.516,-2.602l0,-8.841l-3.674,0l0,-4.592l3.674,0l0,-5.511l5.742,0l0,5.511l5.049,0l0,4.592l-0.005,0.005Z" style="fill:#fff;fill-rule:nonzero;"/><path d="M4907.379,261.639c0,-0.918 0.326,-1.701 0.977,-2.353c0.652,-0.652 1.434,-0.977 2.353,-0.977c0.918,0 1.701,0.326 2.353,0.977c0.652,0.652 0.977,1.434 0.977,2.353c0,0.918 -0.326,1.701 -0.977,2.353c-0.652,0.652 -1.434,0.977 -2.353,0.977c-0.918,0 -1.701,-0.326 -2.353,-0.977c-0.652,-0.652 -0.977,-1.434 -0.977,-2.353Zm0.462,5.855l5.742,0l0,18.596l-5.742,0l0,-18.596Z" style="fill:#fff;fill-rule:nonzero;"/><path d="M4917.025,276.791c0,-1.48 0.267,-2.819 0.805,-4.018c0.534,-1.199 1.267,-2.226 2.199,-3.081c0.932,-0.855 2.027,-1.511 3.289,-1.973c1.262,-0.457 2.606,-0.688 4.036,-0.688c1.43,0 2.774,0.231 4.036,0.688c1.262,0.462 2.357,1.118 3.289,1.973c0.932,0.855 1.665,1.882 2.199,3.081c0.534,1.199 0.805,2.538 0.805,4.018c0,1.48 -0.267,2.819 -0.805,4.018c-0.534,1.199 -1.271,2.226 -2.199,3.081c-0.932,0.855 -2.027,1.511 -3.289,1.973c-1.262,0.457 -2.611,0.688 -4.036,0.688c-1.425,0 -2.774,-0.231 -4.036,-0.688c-1.262,-0.462 -2.362,-1.118 -3.289,-1.973c-0.932,-0.855 -1.665,-1.882 -2.199,-3.081c-0.534,-1.199 -0.805,-2.538 -0.805,-4.018Zm5.737,0c0,1.403 0.403,2.538 1.204,3.407c0.805,0.869 1.932,1.303 3.389,1.303c1.457,0 2.584,-0.434 3.384,-1.303c0.805,-0.869 1.204,-2.004 1.204,-3.407c0,-1.403 -0.403,-2.538 -1.204,-3.407c-0.805,-0.869 -1.932,-1.303 -3.384,-1.303c-1.452,0 -2.584,0.434 -3.389,1.303c-0.805,0.869 -1.204,2.004 -1.204,3.407Z" style="fill:#fff;fill-rule:nonzero;"/><path d="M4941.055,267.494l5.511,0l0,2.525l0.077,0c0.176,-0.357 0.434,-0.715 0.765,-1.072c0.33,-0.357 0.728,-0.674 1.185,-0.955c0.462,-0.281 0.982,-0.511 1.57,-0.688c0.588,-0.176 1.226,-0.267 1.914,-0.267c1.452,0 2.629,0.222 3.52,0.67c0.891,0.448 1.588,1.063 2.086,1.855c0.498,0.792 0.837,1.724 1.013,2.792c0.176,1.072 0.267,2.235 0.267,3.484l0,10.257l-5.742,0l0,-9.108c0,-0.534 -0.018,-1.09 -0.059,-1.665c-0.036,-0.575 -0.154,-1.104 -0.344,-1.588c-0.19,-0.484 -0.484,-0.882 -0.882,-1.185c-0.394,-0.308 -0.964,-0.462 -1.701,-0.462c-0.738,0 -1.339,0.136 -1.801,0.403c-0.457,0.267 -0.81,0.624 -1.054,1.072c-0.244,0.448 -0.403,0.95 -0.48,1.511c-0.077,0.561 -0.113,1.149 -0.113,1.76l0,9.262l-5.742,0l0,-18.596l0.009,-0.005Z" style="fill:#fff;fill-rule:nonzero;"/><path d="M5005.566,120.301c-15.7,4.855 -35.391,4.787 -29.781,27.324c5.864,-10.361 14.804,-17.302 24.921,-22.668c0.023,0.032 0.045,0.059 0.068,0.1c-14.266,11.37 -28.211,23.623 -31.532,43.286c-1.43,13.755 0.172,25.88 -7.542,37.495c-4.588,6.407 -10.533,9.918 -18.709,8.339c-9.642,-1.276 -14.37,-11.189 -14.071,-20.112c-0.466,-18.428 1.05,-37.006 -0.851,-55.34c-1.154,-12.841 -13.958,-18.971 -25.27,-13.696c-1,0.262 -1.289,0.977 -1.289,2.009c0.032,10.18 -0.09,16.696 0.036,26.876c0.032,2.258 0.448,4.905 -1.47,7.687c-4.108,5.945 -17.049,8.226 -22.867,3.511c-4.443,-3.602 -7.072,-10.203 -9.66,-15.13c-17.279,-37.617 -78.515,-35.622 -94.559,2.163c-4.724,10.33 -18.098,20.026 -27.821,10.022c-8.597,-8.253 -11.329,-20.686 -20.976,-28.102c-23.301,-18.754 -63.335,-14.198 -79.03,12.225c-13.311,18.048 -4.724,42.155 -16.845,60.421c-5.778,8.108 -10.958,18.415 -20.437,22.13c-0.231,-14.8 1.805,-86.555 -0.398,-102.001c-8.506,-7.049 -17.836,-3.642 -22.433,3.973c-23.225,-15.999 -60.475,-10.026 -75.365,15.035c-8.153,12.61 -11.972,37.323 -7.303,53.403c7.538,24.012 24.184,36.242 42.087,38.961c2.932,0.566 5.986,0.774 9.144,0.575c10.162,-0.244 20.297,-3.371 29.016,-8.977c-0.05,8.425 0.312,8.036 -11.248,11.017c-13.112,4.642 -31.274,5.787 -43.893,22.378c-10.624,12.551 -10.999,32.278 -0.054,44.585c13.596,13.804 37.635,14.112 53.05,3.167c19.7,-14.465 23.754,-41.983 26.731,-64.362c16.886,-7.656 26.27,-29.043 30.64,-46.897c21.261,67.728 115.272,43.323 103.961,-25.971c9.642,7.882 23.763,-1.756 28.165,-11.167c-7.592,19.37 -2.543,44.037 11.053,59.588c37.753,39.897 97.486,8.284 93.694,-45.897c10.004,4.099 23.591,-1.964 27.066,-9.741c-0.285,13.162 -0.38,27.188 -0.244,40.264c0.059,5.172 0.851,10.221 3.095,14.99c9.995,24.043 47.743,23.387 60.226,1.95c9.741,-15.836 9.212,-32.826 9.606,-50.842c-0.276,-7.38 2.253,-14.954 5.592,-20.935c6.054,1.095 15.08,5.592 19.505,-1.737c5.013,-9.135 2.629,-20.374 6.321,-29.966c-0.176,0.045 -0.258,0.068 -0.339,0.09l0.009,-0.023Zm-444.198,175.648c-9.773,5.588 -24.125,-0.525 -20.741,-13.099c5.737,-16.528 26.202,-20.804 40.477,-27.473c-2.136,14.623 -4.846,33.319 -19.732,40.572l-0.005,0Zm15.397,-112.879c-0.163,12.406 -4.873,28.265 -19.451,29.477c-8.71,1.308 -17.22,-3.497 -21.188,-11.234c-8.18,-16.379 -7.615,-48.68 14.51,-53.349c20.971,-3.991 27.509,18.383 26.134,35.106l-0.005,0Zm135.479,0.448c-0.163,12.406 -4.873,28.265 -19.451,29.477c-8.71,1.308 -17.22,-3.497 -21.188,-11.234c-8.18,-16.379 -7.615,-48.68 14.51,-53.349c20.971,-3.991 27.509,18.383 26.134,35.106l-0.005,0Zm130.959,0c-0.163,12.406 -4.873,28.265 -19.451,29.477c-8.71,1.308 -17.22,-3.497 -21.188,-11.234c-8.18,-16.379 -7.615,-48.68 14.51,-53.349c20.971,-3.991 27.509,18.383 26.134,35.106l-0.005,0Z" style="fill:#fff;fill-rule:nonzero;"/><path d="M4919.88,102.148c7.764,-1.593 9.633,-10.8 7.954,-17.515c-1.457,-8.334 -11.75,-9.85 -18.623,-7.714c-5.918,1.394 -7.628,6.828 -7.927,12.203c-0.271,10.958 8.782,15.637 18.596,13.026Z" style="fill:#fff;fill-rule:nonzero;"/><circle cx="4585.212" cy="73.146" r="6.647" style="fill:#f3b01c;"/><circle cx="4583.647" cy="105.763" r="6.647" style="fill:#f3b01c;"/><circle cx="4601.392" cy="89.1" r="6.647" style="fill:#f3b01c;"/></g></g><path d="M2625,600l0,866.667c0,36.794 -29.872,66.667 -66.667,66.667l-2225,0c-36.794,0 -66.667,-29.872 -66.667,-66.667l0,-866.667c0,-36.794 29.872,-66.667 66.667,-66.667l2225,0c36.794,0 66.667,29.872 66.667,66.667Z" style="fill:#fff;"/><text x="450px" y="766.667px" style="font-family:'AppleColorEmoji', 'Apple Color Emoji';font-size:158.333px;">📦</text><text x="666.667px" y="750px" style="font-family:'Georgia', serif;font-size:91.667px;fill:#013f3a;">Weekly collection</text><g transform="matrix(58.333333,0,0,58.333333,1223.282878,866.666667)"></g><g transform="matrix(58.333333,0,0,58.333333,1239.489746,866.666667)"></g><text x="666.667px" y="866.667px" style="font-family:'Helvetica';font-size:58.333px;fill:#525560;">Alfred collects your of<tspan x="1223.283px " y="866.667px ">ﬁ</tspan>ce&apos;s kitchen scraps</text><text x="666.667px" y="950px" style="font-family:'Helvetica';font-size:58.333px;fill:#525560;">every week. <tspan x="993.083px 1026.636px 1059.078px " y="950px 950px 950px ">You</tspan> arrange a collection point —</text><text x="666.667px" y="1033.333px" style="font-family:'Helvetica';font-size:58.333px;fill:#525560;">we do the rest. No logistics, no hassle.</text><path d="M1158.333,1329.167c0,29.895 -24.271,54.167 -54.167,54.167l-600,0c-29.895,0 -54.167,-24.271 -54.167,-54.167c0,-29.895 24.271,-54.167 54.167,-54.167l600,0c29.895,0 54.167,24.271 54.167,54.167Z" style="fill:#f0f7f4;"/><text x="559.807px" y="1345.833px" style="font-family:'Helvetica-Bold', 'Helvetica';font-weight:700;font-size:45.833px;fill:#108a63;">E<tspan x="590.606px 616.326px 642.045px 660.111px 685.83px 698.793px 734.673px 760.393px 786.112px 811.832px 824.795px 837.758px 863.477px 889.197px 930.179px 955.899px 968.862px 997.088px 1022.807px " y="1345.833px 1345.833px 1345.833px 1345.833px 1345.833px 1345.833px 1345.833px 1345.833px 1345.833px 1345.833px 1345.833px 1345.833px 1345.833px 1345.833px 1345.833px 1345.833px 1345.833px 1345.833px 1345.833px ">very week, same day</tspan></text><path d="M5066.667,600l0,866.667c0,36.794 -29.872,66.667 -66.667,66.667l-2225,0c-36.794,0 -66.667,-29.872 -66.667,-66.667l0,-866.667c0,-36.794 29.872,-66.667 66.667,-66.667l2225,0c36.794,0 66.667,29.872 66.667,66.667Z" style="fill:#fff;"/><text x="2891.667px" y="766.667px" style="font-family:'AppleColorEmoji', 'Apple Color Emoji';font-size:158.333px;">🪣</text><text x="3108.333px" y="750px" style="font-family:'Georgia', serif;font-size:91.667px;fill:#013f3a;">Kitchen collection buckets</text><text x="3108.333px" y="866.667px" style="font-family:'Helvetica';font-size:58.333px;fill:#525560;">Countertop collection buckets for your</text><text x="3108.333px" y="950px" style="font-family:'Helvetica';font-size:58.333px;fill:#525560;">kitchen. <tspan x="3322.384px 3358.101px 3374.308px " y="950px 950px 950px ">A s</tspan>mall thing that dramatically</text><text x="3108.333px" y="1033.333px" style="font-family:'Helvetica';font-size:58.333px;fill:#525560;">improves staf<tspan x="3454.175px 3470.382px " y="1033.333px 1033.333px ">f </tspan>participation from day one.</text><path d="M3433.333,1329.167c0,29.895 -24.271,54.167 -54.167,54.167l-433.333,0c-29.895,0 -54.167,-24.271 -54.167,-54.167c0,-29.895 24.271,-54.167 54.167,-54.167l433.333,0c29.895,0 54.167,24.271 54.167,54.167Z" style="fill:#fbb718;fill-opacity:0.12;"/><text x="2952.97px" y="1345.833px" style="font-family:'Helvetica-Bold', 'Helvetica';font-weight:700;font-size:45.833px;fill:#013f3a;">O<tspan x="2988.85px 3017.076px 3042.796px 3058.288px 3073.78px 3086.743px 3127.725px 3153.445px 3166.408px 3194.634px 3222.86px 3240.926px 3266.645px 3294.871px 3320.591px 3346.31px " y="1345.833px 1345.833px 1345.833px 1345.833px 1345.833px 1345.833px 1345.833px 1345.833px 1345.833px 1345.833px 1345.833px 1345.833px 1345.833px 1345.833px 1345.833px 1345.833px ">ne-time purchase</tspan></text><path d="M2625,1675l0,866.667c0,36.794 -29.872,66.667 -66.667,66.667l-2225,0c-36.794,0 -66.667,-29.872 -66.667,-66.667l0,-866.667c0,-36.794 29.872,-66.667 66.667,-66.667l2225,0c36.794,0 66.667,29.872 66.667,66.667Z" style="fill:#fff;"/><text x="450px" y="1841.667px" style="font-family:'AppleColorEmoji', 'Apple Color Emoji';font-size:158.333px;">📊</text><text x="666.667px" y="1825px" style="font-family:'Georgia', serif;font-size:91.667px;fill:#013f3a;">Live impact dashboard</text><text x="666.667px" y="1941.667px" style="font-family:'Helvetica';font-size:58.333px;fill:#525560;">Y<tspan x="700.22px 732.662px " y="1941.667px 1941.667px ">ou</tspan>r company gets a dedicated landing page</text><text x="666.667px" y="2025px" style="font-family:'Helvetica';font-size:58.333px;fill:#525560;">showing real-time collection stats, CO₂e</text><text x="666.667px" y="2108.333px" style="font-family:'Helvetica';font-size:58.333px;fill:#525560;">savings, and team participation over time.</text><path d="M1833.333,2404.167c0,29.895 -24.271,54.167 -54.167,54.167l-1275,0c-29.895,0 -54.167,-24.271 -54.167,-54.167c0,-29.895 24.271,-54.167 54.167,-54.167l1275,0c29.895,0 54.167,24.271 54.167,54.167Z" style="fill:#f0f7f4;"/><text x="658.384px" y="2420.833px" style="font-family:'Helvetica-Bold', 'Helvetica';font-weight:700;font-size:45.833px;fill:#108a63;">S<tspan x="689.092px 717.227px 742.854px 760.828px 786.456px 812.084px 840.218px 853.09px 878.718px 891.589px 904.461px 917.332px 945.466px 971.094px 989.068px 1004.469px 1030.096px 1055.724px 1071.125px 1083.996px 1099.396px 1127.531px 1145.505px 1158.376px 1184.004px 1212.138px 1237.766px 1253.167px 1278.794px 1291.666px 1319.8px 1345.428px 1373.562px 1386.434px 1399.305px 1412.177px 1427.577px 1453.205px 1466.076px 1484.05px 1509.678px 1537.812px 1565.947px 1583.921px 1599.321px " y="2420.833px 2420.833px 2420.833px 2420.833px 2420.833px 2420.833px 2420.833px 2420.833px 2420.833px 2420.833px 2420.833px 2420.833px 2420.833px 2420.833px 2420.833px 2420.833px 2420.833px 2420.833px 2420.833px 2420.833px 2420.833px 2420.833px 2420.833px 2420.833px 2420.833px 2420.833px 2420.833px 2420.833px 2420.833px 2420.833px 2420.833px 2420.833px 2420.833px 2420.833px 2420.833px 2420.833px 2420.833px 2420.833px 2420.833px 2420.833px 2420.833px 2420.833px 2420.833px 2420.833px 2420.833px ">hareable · perfect for sustainability reports</tspan></text><path d="M5066.667,1675l0,866.667c0,36.794 -29.872,66.667 -66.667,66.667l-2225,0c-36.794,0 -66.667,-29.872 -66.667,-66.667l0,-866.667c0,-36.794 29.872,-66.667 66.667,-66.667l2225,0c36.794,0 66.667,29.872 66.667,66.667Z" style="fill:#fff;"/><text x="2891.667px" y="1841.667px" style="font-family:'AppleColorEmoji', 'Apple Color Emoji';font-size:158.333px;">📣</text><g transform="matrix(91.666667,0,0,91.666667,3237.597656,1825)"></g><g transform="matrix(91.666667,0,0,91.666667,3267.407227,1825)"></g><text x="3108.333px" y="1825px" style="font-family:'Georgia', serif;font-size:91.667px;fill:#013f3a;">Staﬀ communication support</text><text x="3108.333px" y="1941.667px" style="font-family:'Helvetica';font-size:58.333px;fill:#525560;">W<tspan x="3162.366px 3194.808px " y="1941.667px 1941.667px ">e </tspan>supply posters, kitchen signage, and</text><text x="3108.333px" y="2025px" style="font-family:'Helvetica';font-size:58.333px;fill:#525560;">onboarding materials to get your team</text><text x="3108.333px" y="2108.333px" style="font-family:'Helvetica';font-size:58.333px;fill:#525560;">composting from day one.</text><path d="M3483.333,2404.167c0,29.895 -24.271,54.167 -54.167,54.167l-483.333,0c-29.895,0 -54.167,-24.271 -54.167,-54.167c0,-29.895 24.271,-54.167 54.167,-54.167l483.333,0c29.895,0 54.167,24.271 54.167,54.167Z" style="fill:#f0f7f4;"/><text x="2997.895px" y="2420.833px" style="font-family:'Helvetica-Bold', 'Helvetica';font-weight:700;font-size:45.833px;fill:#108a63;">I<tspan x="3010.767px 3038.901px 3064.529px 3077.4px 3105.535px 3133.669px 3159.297px 3187.431px 3200.303px 3213.174px 3241.309px 3254.18px 3279.808px 3305.436px 3320.836px 3348.97px " y="2420.833px 2420.833px 2420.833px 2420.833px 2420.833px 2420.833px 2420.833px 2420.833px 2420.833px 2420.833px 2420.833px 2420.833px 2420.833px 2420.833px 2420.833px 2420.833px ">ncluded in setup</tspan></text></svg>