<?xml version="1.0" encoding="UTF-8"?><svg id="Layer_2" xmlns="http://www.w3.org/2000/svg" viewBox="0 0 478.81 713.12"><defs><style>.cls-1{fill:#0f4a3a;}.cls-1,.cls-2{stroke-width:0px;}.cls-2{fill:#f5b11a;}</style></defs><g id="Layer_1-2"><circle class="cls-2" cx="222.08" cy="17.32" r="17.32"/><circle class="cls-2" cx="217.99" cy="102.35" r="17.32"/><circle class="cls-2" cx="264.26" cy="58.91" r="17.32"/><path class="cls-1" d="M478.81,167.7c-34.49,26.51-16.49,93.33-76.24,89.16-29.66,5.86-20.94,45.4-20.78,71.7.38,62.39-3.64,133.31-74.12,165.83-4.39,2.02-11.31,5.95-11.31,5.95,0,0-1.95,20.8-2.56,28.94-4.3,33.42-12.38,66.42-26.04,97.23-27.54,82.01-142.24,117.45-205.53,54.31-55.9-62.52-4.9-156.04,60.24-176.29,34.01-11.67,51.26-16,69.58-21.56,3.76-1.13,31.04-7.64,31.72-11.7,2.23-13.36,3.14-26.48,2.1-40.13-18.93,36.79-71.77,47.55-109.74,44.77C29.36,457.69,4.13,382.57.2,315c-2.49-60.6,18.34-125.24,70.13-160.7,49.93-35.52,124.68-20.36,153.57,34.7-1.18-39.76,41.59-72,74.8-42.73,7.42,39.84-1.01,220.72-.33,281.34.08,7.13-.39,17.66.18,20.83,106.39-42.49,37.97-164.47,103.54-223.59,14.82-10,27.54-16.29,36.69-31.27-24.01,23.97-46.16,19.58-62.28,56.79-7.83-39.9-1.1-74.25,46.03-75.61,16.82,1.06,42.03-7.21,56.28-7.06ZM162.46,645.87c21.51-9.02,33.27-27.85,41.56-48.37,5.26-13.02,9.08-27.41,11.39-40.22,1.25-9.09,4.77-22.77,5.33-31.26-32.27,13.59-67.59,25.3-95.44,47.12-48.37,33.67-20.67,100.14,37.16,72.73ZM90.48,373.71c6.44,11.63,15.12,21.04,27.02,27.33,11.23,5.94,23.07,7.13,35.59,5.86,22.18-2.24,36.75-14.54,46.13-33.77,8.18-16.77,10.63-34.91,11.32-53.3.67-17.7-.36-35.29-4.62-52.59-3.39-13.74-8.71-26.72-19.2-36.38-15.03-13.84-33.56-18.37-53.37-14.73-22.77,4.18-38.01,18.58-46.81,39.51-7.34,17.45-10.45,35.85-9.38,54.19-.79,22.83,2.42,44.18,13.33,63.89Z"/></g></svg>