<?xml version="1.0" encoding="UTF-8"?><svg id="Layer_2" xmlns="http://www.w3.org/2000/svg" viewBox="0 0 1117.33 557.37"><defs><style>.cls-1{fill:#0f4a3a;}.cls-1,.cls-2{stroke-width:0px;}.cls-2{fill:#f5b11a;}</style></defs><g id="Layer_1-2"><path class="cls-1" d="M1116.57,118.91c-34.7,10.73-78.22,10.58-65.82,60.39,12.96-22.9,32.72-38.24,55.08-50.1.05.07.1.13.15.22-31.53,25.13-62.35,52.21-69.69,95.67-3.16,30.4.38,57.2-16.67,82.87-10.14,14.16-23.28,21.92-41.35,18.43-21.31-2.82-31.76-24.73-31.1-44.45-1.03-40.73,2.32-81.79-1.88-122.31-2.55-28.38-30.85-41.93-55.85-30.27-2.21.58-2.85,2.16-2.85,4.44.07,22.5-.2,36.9.08,59.4.07,4.99.99,10.84-3.25,16.99-9.08,13.14-37.68,18.18-50.54,7.76-9.82-7.96-15.63-22.55-21.35-33.44-38.19-83.14-173.53-78.73-208.99,4.78-10.44,22.83-40,44.26-61.49,22.15-19-18.24-25.04-45.72-46.36-62.11-51.5-41.45-139.98-31.38-174.67,27.02-29.42,39.89-10.44,93.17-37.23,133.54-12.77,17.92-24.22,40.7-45.17,48.91-.51-32.71,3.99-191.3-.88-225.44-18.8-15.58-39.42-8.05-49.58,8.78-51.33-35.36-133.66-22.16-166.57,33.23-18.02,27.87-26.46,82.49-16.14,118.03,16.66,53.07,53.45,80.1,93.02,86.11,6.48,1.25,13.23,1.71,20.21,1.27,22.46-.54,44.86-7.45,64.13-19.84-.11,18.62.69,17.76-24.86,24.35-28.98,10.26-69.12,12.79-97.01,49.46-23.48,27.74-24.31,71.34-.12,98.54,30.05,30.51,83.18,31.19,117.25,7,43.54-31.97,52.5-92.79,59.08-142.25,37.32-16.92,58.06-64.19,67.72-103.65,46.99,149.69,254.77,95.75,229.77-57.4,21.31,17.42,52.52-3.88,62.25-24.68-16.78,42.81-5.62,97.33,24.43,131.7,83.44,88.18,215.46,18.31,207.08-101.44,22.11,9.06,52.14-4.34,59.82-21.53-.63,29.09-.84,60.09-.54,88.99.13,11.43,1.88,22.59,6.84,33.13,22.09,53.14,105.52,51.69,133.11,4.31,21.53-35,20.36-72.55,21.23-112.37-.61-16.31,4.98-33.05,12.36-46.27,13.38,2.42,33.33,12.36,43.11-3.84,11.08-20.19,5.81-45.03,13.97-66.23-.39.1-.57.15-.75.2ZM134.82,507.12c-21.6,12.35-53.32-1.16-45.84-28.95,12.68-36.53,57.91-45.98,89.46-60.72-4.72,32.32-10.71,73.64-43.61,89.67ZM168.85,257.64c-.36,27.42-10.77,62.47-42.99,65.15-19.25,2.89-38.06-7.73-46.83-24.83-18.08-36.2-16.83-107.59,32.07-117.91,46.35-8.82,60.8,40.63,57.76,77.59ZM468.28,258.63c-.36,27.42-10.77,62.47-42.99,65.15-19.25,2.89-38.06-7.73-46.83-24.83-18.08-36.2-16.83-107.59,32.07-117.91,46.35-8.82,60.8,40.63,57.76,77.59ZM757.72,258.63c-.36,27.42-10.77,62.47-42.99,65.15-19.25,2.89-38.06-7.73-46.83-24.83-18.08-36.2-16.83-107.59,32.07-117.91,46.35-8.82,60.8,40.63,57.76,77.59Z"/><path class="cls-1" d="M927.19,78.79c17.16-3.52,21.29-23.87,17.58-38.71-3.22-18.42-25.97-21.77-41.16-17.05-13.08,3.08-16.86,15.09-17.52,26.97-.6,24.22,19.41,34.56,41.1,28.79Z"/><circle class="cls-2" cx="187.52" cy="14.69" r="14.69"/><circle class="cls-2" cx="184.06" cy="86.78" r="14.69"/><circle class="cls-2" cx="223.28" cy="49.95" r="14.69"/></g></svg>