<?xml version="1.0" encoding="UTF-8" standalone="no"?><!DOCTYPE svg PUBLIC "-//W3C//DTD SVG 1.1//EN" "http://www.w3.org/Graphics/SVG/1.1/DTD/svg11.dtd"><svg width="100%" height="100%" viewBox="0 0 5334 3000" version="1.1" xmlns="http://www.w3.org/2000/svg" xmlns:xlink="http://www.w3.org/1999/xlink" xml:space="preserve" xmlns:serif="http://www.serif.com/" style="fill-rule:evenodd;clip-rule:evenodd;"><rect x="0" y="0" width="5333.333" height="3000" style="fill:#013f3a;"/><circle cx="4416.667" cy="1083.333" r="1333.333" style="fill:#84cba3;fill-opacity:0.07;"/><circle cx="4916.667" cy="583.333" r="875" style="fill:#84cba3;fill-opacity:0.06;"/><circle cx="4000" cy="1916.667" r="791.667" style="fill:#84cba3;fill-opacity:0.05;"/><circle cx="4750" cy="2250" r="541.667" style="fill:#fbb718;fill-opacity:0.04;"/><circle cx="3416.667" cy="833.333" r="416.667" style="fill:#84cba3;fill-opacity:0.04;"/><clipPath id="_clip1"><rect x="52.483" y="43.541" width="784.708" height="391.445"/></clipPath><g clip-path="url(#_clip1)"><g id="Layer_1-2"><path d="M262.283,364.854c-0.435,-0.632 -1.046,-1.159 -1.84,-1.573c-0.794,-0.414 -1.643,-0.625 -2.556,-0.625c-2.254,0 -4.01,0.674 -5.26,2.023c-1.25,1.348 -1.868,3.111 -1.868,5.288c0,2.177 0.625,3.94 1.868,5.288c1.25,1.348 2.999,2.023 5.26,2.023c0.99,0 1.84,-0.218 2.556,-0.653c0.709,-0.435 1.327,-0.948 1.84,-1.545l5.878,6.18c-1.384,1.426 -3.02,2.423 -4.902,2.999c-1.882,0.576 -3.673,0.864 -5.373,0.864c-2.219,0 -4.305,-0.358 -6.265,-1.068c-1.959,-0.716 -3.666,-1.735 -5.106,-3.062c-1.447,-1.327 -2.584,-2.922 -3.413,-4.783c-0.829,-1.861 -1.25,-3.94 -1.25,-6.236c0,-2.297 0.414,-4.375 1.25,-6.236c0.829,-1.861 1.966,-3.455 3.413,-4.783c1.447,-1.327 3.146,-2.346 5.106,-3.062c1.959,-0.709 4.045,-1.068 6.265,-1.068c1.7,0 3.497,0.288 5.373,0.864c1.882,0.576 3.512,1.573 4.902,2.999l-5.878,6.18l0,-0.014Z" style="fill:#fff;fill-rule:nonzero;"/><path d="M270.304,369.959c0,-2.297 0.414,-4.375 1.25,-6.236c0.829,-1.861 1.966,-3.455 3.413,-4.783c1.447,-1.327 3.146,-2.346 5.106,-3.062c1.959,-0.709 4.045,-1.068 6.265,-1.068c2.219,0 4.305,0.358 6.265,1.068c1.959,0.716 3.659,1.735 5.106,3.062c1.447,1.327 2.584,2.922 3.413,4.783c0.829,1.861 1.25,3.94 1.25,6.236c0,2.297 -0.414,4.375 -1.25,6.236c-0.829,1.861 -1.973,3.455 -3.413,4.783c-1.447,1.327 -3.146,2.346 -5.106,3.062c-1.959,0.709 -4.052,1.068 -6.265,1.068c-2.212,0 -4.305,-0.358 -6.265,-1.068c-1.959,-0.716 -3.666,-1.735 -5.106,-3.062c-1.447,-1.327 -2.584,-2.922 -3.413,-4.783c-0.829,-1.861 -1.25,-3.94 -1.25,-6.236Zm8.912,0c0,2.177 0.625,3.94 1.868,5.288c1.25,1.348 2.999,2.023 5.26,2.023c2.261,0 4.01,-0.674 5.253,-2.023c1.25,-1.348 1.868,-3.111 1.868,-5.288c0,-2.177 -0.625,-3.94 -1.868,-5.288c-1.25,-1.348 -2.999,-2.023 -5.253,-2.023c-2.254,0 -4.01,0.674 -5.26,2.023c-1.25,1.348 -1.868,3.111 -1.868,5.288Z" style="fill:#fff;fill-rule:nonzero;"/><path d="M307.603,355.527l8.554,0l0,3.919l0.119,0c0.274,-0.555 0.674,-1.11 1.187,-1.664c0.513,-0.555 1.131,-1.046 1.84,-1.482c0.716,-0.435 1.524,-0.794 2.437,-1.068c0.913,-0.274 1.903,-0.414 2.971,-0.414c2.023,0 3.814,0.414 5.373,1.25c1.566,0.829 2.739,2.135 3.533,3.919c1.032,-1.861 2.275,-3.188 3.743,-3.982c1.461,-0.794 3.266,-1.187 5.408,-1.187c1.938,0 3.575,0.33 4.902,0.983c1.327,0.653 2.374,1.545 3.146,2.676c0.773,1.131 1.327,2.458 1.664,3.982c0.337,1.524 0.506,3.16 0.506,4.902l0,17.045l-8.912,0l0,-16.813c0,-1.348 -0.288,-2.507 -0.864,-3.476c-0.576,-0.969 -1.594,-1.454 -3.062,-1.454c-1.032,0 -1.889,0.169 -2.584,0.506c-0.695,0.337 -1.25,0.801 -1.664,1.398c-0.414,0.597 -0.716,1.285 -0.892,2.079c-0.176,0.794 -0.267,1.622 -0.267,2.493l0,15.268l-8.912,0l0,-15.268c0,-0.513 -0.021,-1.145 -0.056,-1.903c-0.042,-0.751 -0.176,-1.468 -0.414,-2.135c-0.239,-0.674 -0.625,-1.25 -1.159,-1.721c-0.534,-0.478 -1.32,-0.716 -2.346,-0.716c-1.152,0 -2.079,0.211 -2.795,0.625c-0.709,0.414 -1.257,0.969 -1.636,1.664c-0.379,0.695 -0.625,1.475 -0.744,2.346c-0.119,0.871 -0.176,1.784 -0.176,2.732l0,14.376l-8.912,0l0,-28.865l0.014,-0.014Z" style="fill:#fff;fill-rule:nonzero;"/><path d="M360.115,355.527l8.196,0l0,3.799l0.119,0c0.358,-0.513 0.822,-1.039 1.398,-1.573c0.576,-0.534 1.25,-1.018 2.023,-1.454c0.773,-0.435 1.615,-0.794 2.521,-1.068c0.913,-0.274 1.882,-0.414 2.908,-0.414c2.135,0 4.08,0.365 5.822,1.096c1.742,0.73 3.238,1.763 4.488,3.09c1.25,1.327 2.205,2.901 2.879,4.72c0.674,1.819 1.011,3.821 1.011,5.998c0,2.023 -0.309,3.947 -0.92,5.794c-0.618,1.84 -1.482,3.476 -2.613,4.902c-1.131,1.426 -2.507,2.563 -4.13,3.413c-1.622,0.85 -3.462,1.278 -5.527,1.278c-1.861,0 -3.596,-0.288 -5.197,-0.864c-1.601,-0.576 -2.922,-1.552 -3.947,-2.943l-0.119,0l0,16.631l-8.912,0l0,-42.412l0,0.007Zm8.196,14.432c0,2.177 0.625,3.94 1.868,5.288c1.25,1.348 2.999,2.023 5.253,2.023c2.254,0 4.01,-0.674 5.26,-2.023c1.25,-1.348 1.868,-3.111 1.868,-5.288c0,-2.177 -0.625,-3.94 -1.868,-5.288c-1.25,-1.348 -2.999,-2.023 -5.26,-2.023c-2.261,0 -4.01,0.674 -5.253,2.023c-1.25,1.348 -1.868,3.111 -1.868,5.288Z" style="fill:#fff;fill-rule:nonzero;"/><path d="M395.637,369.959c0,-2.297 0.414,-4.375 1.25,-6.236c0.829,-1.861 1.966,-3.455 3.413,-4.783c1.447,-1.327 3.146,-2.346 5.106,-3.062c1.959,-0.709 4.045,-1.068 6.265,-1.068c2.219,0 4.305,0.358 6.265,1.068c1.959,0.716 3.659,1.735 5.106,3.062c1.447,1.327 2.584,2.922 3.413,4.783c0.829,1.861 1.25,3.94 1.25,6.236c0,2.297 -0.414,4.375 -1.25,6.236c-0.829,1.861 -1.973,3.455 -3.413,4.783c-1.447,1.327 -3.146,2.346 -5.106,3.062c-1.959,0.709 -4.052,1.068 -6.265,1.068c-2.212,0 -4.305,-0.358 -6.265,-1.068c-1.959,-0.716 -3.666,-1.735 -5.106,-3.062c-1.447,-1.327 -2.584,-2.922 -3.413,-4.783c-0.829,-1.861 -1.25,-3.94 -1.25,-6.236Zm8.905,0c0,2.177 0.625,3.94 1.868,5.288c1.25,1.348 2.999,2.023 5.26,2.023c2.261,0 4.01,-0.674 5.253,-2.023c1.25,-1.348 1.868,-3.111 1.868,-5.288c0,-2.177 -0.625,-3.94 -1.868,-5.288c-1.25,-1.348 -2.999,-2.023 -5.253,-2.023c-2.254,0 -4.01,0.674 -5.26,2.023c-1.25,1.348 -1.868,3.111 -1.868,5.288Z" style="fill:#fff;fill-rule:nonzero;"/><path d="M449.273,364.018c-1.306,-1.622 -3.027,-2.437 -5.169,-2.437c-0.751,0 -1.482,0.176 -2.198,0.534c-0.716,0.358 -1.068,0.969 -1.068,1.84c0,0.709 0.365,1.236 1.096,1.573c0.73,0.337 1.664,0.632 2.795,0.892c1.131,0.26 2.339,0.534 3.624,0.829c1.285,0.295 2.493,0.766 3.624,1.398c1.131,0.632 2.058,1.496 2.795,2.584c0.73,1.089 1.096,2.542 1.096,4.368c0,1.826 -0.407,3.399 -1.215,4.6c-0.815,1.208 -1.854,2.177 -3.118,2.908c-1.271,0.73 -2.69,1.25 -4.277,1.545c-1.587,0.295 -3.146,0.442 -4.691,0.442c-2.023,0 -4.059,-0.288 -6.117,-0.864c-2.058,-0.576 -3.799,-1.594 -5.225,-3.062l5.408,-5.998c0.829,1.032 1.756,1.812 2.76,2.346c1.011,0.534 2.191,0.801 3.533,0.801c1.032,0 1.959,-0.147 2.795,-0.442c0.836,-0.295 1.25,-0.843 1.25,-1.636c0,-0.751 -0.365,-1.313 -1.096,-1.693c-0.73,-0.379 -1.664,-0.695 -2.795,-0.948c-1.131,-0.26 -2.339,-0.534 -3.624,-0.829c-1.285,-0.295 -2.493,-0.744 -3.624,-1.334c-1.131,-0.597 -2.058,-1.433 -2.795,-2.521c-0.73,-1.089 -1.096,-2.542 -1.096,-4.368c0,-1.7 0.344,-3.167 1.039,-4.396c0.695,-1.229 1.601,-2.24 2.732,-3.027c1.131,-0.794 2.423,-1.377 3.891,-1.756c1.461,-0.379 2.95,-0.562 4.453,-0.562c1.903,0 3.821,0.281 5.759,0.829c1.938,0.555 3.582,1.545 4.93,2.971l-5.464,5.408l-0.007,0.007Z" style="fill:#fff;fill-rule:nonzero;"/><path d="M480.097,362.655l-7.838,0l0,9.622c0,0.794 0.042,1.517 0.119,2.17c0.077,0.653 0.26,1.215 0.534,1.693c0.274,0.478 0.702,0.843 1.278,1.096c0.576,0.26 1.334,0.386 2.29,0.386c0.478,0 1.096,-0.049 1.868,-0.147c0.773,-0.098 1.355,-0.323 1.756,-0.681l0,7.423c-0.99,0.358 -2.023,0.597 -3.09,0.716c-1.068,0.119 -2.121,0.176 -3.146,0.176c-1.503,0 -2.894,-0.162 -4.158,-0.478c-1.271,-0.316 -2.374,-0.822 -3.329,-1.517c-0.948,-0.695 -1.693,-1.594 -2.226,-2.704c-0.534,-1.11 -0.801,-2.458 -0.801,-4.038l0,-13.723l-5.703,0l0,-7.128l5.703,0l0,-8.554l8.912,0l0,8.554l7.838,0l0,7.128l-0.007,0.007Z" style="fill:#fff;fill-rule:nonzero;"/><path d="M521.737,364.854c-0.435,-0.632 -1.046,-1.159 -1.84,-1.573c-0.794,-0.414 -1.643,-0.625 -2.556,-0.625c-2.254,0 -4.01,0.674 -5.26,2.023c-1.25,1.348 -1.868,3.111 -1.868,5.288c0,2.177 0.625,3.94 1.868,5.288c1.25,1.348 2.999,2.023 5.26,2.023c0.99,0 1.84,-0.218 2.556,-0.653c0.709,-0.435 1.327,-0.948 1.84,-1.545l5.878,6.18c-1.384,1.426 -3.02,2.423 -4.902,2.999c-1.882,0.576 -3.673,0.864 -5.373,0.864c-2.219,0 -4.305,-0.358 -6.265,-1.068c-1.959,-0.716 -3.666,-1.735 -5.106,-3.062c-1.447,-1.327 -2.584,-2.922 -3.413,-4.783c-0.829,-1.861 -1.25,-3.94 -1.25,-6.236c0,-2.297 0.414,-4.375 1.25,-6.236c0.829,-1.861 1.966,-3.455 3.413,-4.783c1.447,-1.327 3.146,-2.346 5.106,-3.062c1.959,-0.709 4.045,-1.068 6.265,-1.068c1.7,0 3.497,0.288 5.373,0.864c1.882,0.576 3.512,1.573 4.902,2.999l-5.878,6.18l0,-0.014Z" style="fill:#fff;fill-rule:nonzero;"/><path d="M529.757,369.959c0,-2.297 0.414,-4.375 1.25,-6.236c0.829,-1.861 1.966,-3.455 3.413,-4.783c1.447,-1.327 3.146,-2.346 5.106,-3.062c1.959,-0.709 4.045,-1.068 6.265,-1.068c2.219,0 4.305,0.358 6.265,1.068c1.959,0.716 3.659,1.735 5.106,3.062c1.447,1.327 2.584,2.922 3.413,4.783c0.829,1.861 1.25,3.94 1.25,6.236c0,2.297 -0.414,4.375 -1.25,6.236c-0.829,1.861 -1.973,3.455 -3.413,4.783c-1.447,1.327 -3.146,2.346 -5.106,3.062c-1.959,0.709 -4.052,1.068 -6.265,1.068c-2.212,0 -4.305,-0.358 -6.265,-1.068c-1.959,-0.716 -3.666,-1.735 -5.106,-3.062c-1.447,-1.327 -2.584,-2.922 -3.413,-4.783c-0.829,-1.861 -1.25,-3.94 -1.25,-6.236Zm8.912,0c0,2.177 0.625,3.94 1.868,5.288c1.25,1.348 2.999,2.023 5.26,2.023c2.261,0 4.01,-0.674 5.253,-2.023c1.25,-1.348 1.868,-3.111 1.868,-5.288c0,-2.177 -0.625,-3.94 -1.868,-5.288c-1.25,-1.348 -2.999,-2.023 -5.253,-2.023c-2.254,0 -4.01,0.674 -5.26,2.023c-1.25,1.348 -1.868,3.111 -1.868,5.288Z" style="fill:#fff;fill-rule:nonzero;"/><rect x="567.176" y="339.486" width="8.912" height="44.905" style="fill:#fff;fill-rule:nonzero;"/><rect x="582.62" y="339.486" width="8.912" height="44.905" style="fill:#fff;fill-rule:nonzero;"/><path d="M625.271,379.405c-1.426,1.819 -3.231,3.231 -5.408,4.214c-2.177,0.99 -4.439,1.482 -6.77,1.482c-2.332,0 -4.305,-0.358 -6.265,-1.068c-1.959,-0.716 -3.666,-1.735 -5.106,-3.062c-1.447,-1.327 -2.584,-2.922 -3.413,-4.783c-0.829,-1.861 -1.25,-3.94 -1.25,-6.236c0,-2.297 0.414,-4.375 1.25,-6.236c0.829,-1.861 1.966,-3.455 3.413,-4.783c1.447,-1.327 3.146,-2.346 5.106,-3.062c1.959,-0.709 4.045,-1.068 6.265,-1.068c2.058,0 3.933,0.358 5.611,1.068c1.686,0.716 3.111,1.735 4.277,3.062c1.166,1.327 2.072,2.922 2.704,4.783c0.632,1.861 0.948,3.94 0.948,6.236l0,2.795l-20.669,0c0.358,1.7 1.131,3.062 2.318,4.066c1.187,1.004 2.655,1.517 4.396,1.517c1.468,0 2.704,-0.33 3.715,-0.983c1.011,-0.653 1.889,-1.496 2.641,-2.521l6.236,4.572l0,0.007Zm-7.543,-12.712c0.042,-1.503 -0.456,-2.795 -1.482,-3.863c-1.032,-1.068 -2.36,-1.601 -3.982,-1.601c-0.99,0 -1.861,0.162 -2.613,0.478c-0.751,0.316 -1.398,0.723 -1.931,1.215c-0.534,0.499 -0.948,1.068 -1.25,1.721c-0.295,0.653 -0.464,1.334 -0.506,2.051l11.764,0Z" style="fill:#fff;fill-rule:nonzero;"/><path d="M651.586,364.854c-0.435,-0.632 -1.046,-1.159 -1.84,-1.573c-0.794,-0.414 -1.643,-0.625 -2.556,-0.625c-2.254,0 -4.01,0.674 -5.26,2.023c-1.25,1.348 -1.868,3.111 -1.868,5.288c0,2.177 0.625,3.94 1.868,5.288c1.25,1.348 2.999,2.023 5.26,2.023c0.99,0 1.84,-0.218 2.556,-0.653c0.709,-0.435 1.327,-0.948 1.84,-1.545l5.878,6.18c-1.384,1.426 -3.02,2.423 -4.902,2.999c-1.882,0.576 -3.673,0.864 -5.373,0.864c-2.219,0 -4.305,-0.358 -6.265,-1.068c-1.959,-0.716 -3.666,-1.735 -5.106,-3.062c-1.447,-1.327 -2.584,-2.922 -3.413,-4.783c-0.829,-1.861 -1.25,-3.94 -1.25,-6.236c0,-2.297 0.414,-4.375 1.25,-6.236c0.829,-1.861 1.966,-3.455 3.413,-4.783c1.447,-1.327 3.146,-2.346 5.106,-3.062c1.959,-0.709 4.045,-1.068 6.265,-1.068c1.7,0 3.497,0.288 5.373,0.864c1.882,0.576 3.512,1.573 4.902,2.999l-5.878,6.18l0,-0.014Z" style="fill:#fff;fill-rule:nonzero;"/><path d="M680.332,362.655l-7.838,0l0,9.622c0,0.794 0.042,1.517 0.119,2.17c0.077,0.653 0.26,1.215 0.534,1.693c0.274,0.478 0.702,0.843 1.278,1.096c0.576,0.26 1.334,0.386 2.29,0.386c0.478,0 1.096,-0.049 1.868,-0.147c0.773,-0.098 1.355,-0.323 1.756,-0.681l0,7.423c-0.99,0.358 -2.023,0.597 -3.09,0.716c-1.068,0.119 -2.121,0.176 -3.146,0.176c-1.503,0 -2.894,-0.162 -4.158,-0.478c-1.271,-0.316 -2.374,-0.822 -3.329,-1.517c-0.948,-0.695 -1.693,-1.594 -2.226,-2.704c-0.534,-1.11 -0.801,-2.458 -0.801,-4.038l0,-13.723l-5.703,0l0,-7.128l5.703,0l0,-8.554l8.912,0l0,8.554l7.838,0l0,7.128l-0.007,0.007Z" style="fill:#fff;fill-rule:nonzero;"/><path d="M684.25,346.439c0,-1.426 0.506,-2.641 1.517,-3.652c1.011,-1.011 2.226,-1.517 3.652,-1.517c1.426,0 2.641,0.506 3.652,1.517c1.011,1.011 1.517,2.226 1.517,3.652c0,1.426 -0.506,2.641 -1.517,3.652c-1.011,1.011 -2.226,1.517 -3.652,1.517c-1.426,0 -2.641,-0.506 -3.652,-1.517c-1.011,-1.011 -1.517,-2.226 -1.517,-3.652Zm0.716,9.088l8.912,0l0,28.865l-8.912,0l0,-28.865Z" style="fill:#fff;fill-rule:nonzero;"/><path d="M699.224,369.959c0,-2.297 0.414,-4.375 1.25,-6.236c0.829,-1.861 1.966,-3.455 3.413,-4.783c1.447,-1.327 3.146,-2.346 5.106,-3.062c1.959,-0.709 4.045,-1.068 6.265,-1.068c2.219,0 4.305,0.358 6.265,1.068c1.959,0.716 3.659,1.735 5.106,3.062c1.447,1.327 2.584,2.922 3.413,4.783c0.829,1.861 1.25,3.94 1.25,6.236c0,2.297 -0.414,4.375 -1.25,6.236c-0.829,1.861 -1.973,3.455 -3.413,4.783c-1.447,1.327 -3.146,2.346 -5.106,3.062c-1.959,0.709 -4.052,1.068 -6.265,1.068c-2.212,0 -4.305,-0.358 -6.265,-1.068c-1.959,-0.716 -3.666,-1.735 -5.106,-3.062c-1.447,-1.327 -2.584,-2.922 -3.413,-4.783c-0.829,-1.861 -1.25,-3.94 -1.25,-6.236Zm8.905,0c0,2.177 0.625,3.94 1.868,5.288c1.25,1.348 2.999,2.023 5.26,2.023c2.261,0 4.01,-0.674 5.253,-2.023c1.25,-1.348 1.868,-3.111 1.868,-5.288c0,-2.177 -0.625,-3.94 -1.868,-5.288c-1.25,-1.348 -2.999,-2.023 -5.253,-2.023c-2.254,0 -4.01,0.674 -5.26,2.023c-1.25,1.348 -1.868,3.111 -1.868,5.288Z" style="fill:#fff;fill-rule:nonzero;"/><path d="M736.523,355.527l8.554,0l0,3.919l0.119,0c0.274,-0.555 0.674,-1.11 1.187,-1.664c0.513,-0.555 1.131,-1.046 1.84,-1.482c0.716,-0.435 1.524,-0.794 2.437,-1.068c0.913,-0.274 1.903,-0.414 2.971,-0.414c2.254,0 4.08,0.344 5.464,1.039c1.384,0.695 2.465,1.65 3.238,2.879c0.773,1.229 1.299,2.676 1.573,4.333c0.274,1.664 0.414,3.469 0.414,5.408l0,15.921l-8.912,0l0,-14.137c0,-0.829 -0.028,-1.693 -0.091,-2.584c-0.056,-0.892 -0.239,-1.714 -0.534,-2.465c-0.295,-0.751 -0.751,-1.369 -1.369,-1.84c-0.611,-0.478 -1.496,-0.716 -2.641,-0.716c-1.145,0 -2.079,0.211 -2.795,0.625c-0.709,0.414 -1.257,0.969 -1.636,1.664c-0.379,0.695 -0.625,1.475 -0.744,2.346c-0.119,0.871 -0.176,1.784 -0.176,2.732l0,14.376l-8.912,0l0,-28.865l0.014,-0.007Z" style="fill:#fff;fill-rule:nonzero;"/><path d="M836.658,127.053c-24.37,7.536 -54.934,7.43 -46.226,42.412c9.102,-16.083 22.979,-26.856 38.683,-35.186c0.035,0.049 0.07,0.091 0.105,0.155c-22.144,17.649 -43.789,36.667 -48.944,67.19c-2.219,21.35 0.267,40.172 -11.707,58.2c-7.121,9.945 -16.35,15.395 -29.04,12.944c-14.966,-1.981 -22.305,-17.368 -21.842,-31.218c-0.723,-28.605 1.629,-57.442 -1.32,-85.899c-1.791,-19.931 -21.666,-29.448 -39.224,-21.259c-1.552,0.407 -2.002,1.517 -2.002,3.118c0.049,15.802 -0.14,25.915 0.056,41.717c0.049,3.505 0.695,7.613 -2.282,11.932c-6.377,9.228 -26.463,12.768 -35.495,5.45c-6.897,-5.59 -10.977,-15.837 -14.994,-23.485c-26.821,-58.39 -121.871,-55.293 -146.775,3.357c-7.332,16.034 -28.092,31.084 -43.185,15.556c-13.344,-12.81 -17.586,-32.109 -32.559,-43.62c-36.169,-29.111 -98.309,-22.038 -122.672,18.976c-20.662,28.015 -7.332,65.434 -26.147,93.786c-8.968,12.585 -17.01,28.584 -31.723,34.35c-0.358,-22.972 2.802,-134.351 -0.618,-158.328c-13.203,-10.942 -27.685,-5.654 -34.82,6.166c-36.049,-24.834 -93.87,-15.563 -116.983,23.338c-12.656,19.573 -18.583,57.933 -11.335,82.893c11.7,37.271 37.538,56.255 65.329,60.476c4.551,0.878 9.292,1.201 14.194,0.892c15.774,-0.379 31.505,-5.232 45.039,-13.934c-0.077,13.077 0.485,12.473 -17.459,17.101c-20.353,7.206 -48.543,8.983 -68.131,34.736c-16.49,19.482 -17.073,50.103 -0.084,69.205c21.104,21.427 58.418,21.905 82.345,4.916c30.578,-22.453 36.871,-65.167 41.492,-99.903c26.21,-11.883 40.776,-45.081 47.56,-72.794c33.001,105.128 178.927,67.246 161.369,-40.312c14.966,12.234 36.885,-2.725 43.719,-17.333c-11.785,30.066 -3.947,68.356 17.157,92.494c58.6,61.929 151.319,12.859 145.434,-71.242c15.528,6.363 36.618,-3.048 42.012,-15.121c-0.442,20.43 -0.59,42.202 -0.379,62.498c0.091,8.027 1.32,15.865 4.804,23.267c15.514,37.321 74.107,36.302 93.484,3.027c15.121,-24.581 14.299,-50.952 14.91,-78.918c-0.428,-11.455 3.497,-23.211 8.681,-32.496c9.397,1.7 23.408,8.681 30.276,-2.697c7.782,-14.18 4.08,-31.625 9.811,-46.514c-0.274,0.07 -0.4,0.105 -0.527,0.14l0.014,-0.035Zm-689.49,272.642c-15.17,8.673 -37.447,-0.815 -32.194,-20.332c8.905,-25.655 40.671,-32.292 62.828,-42.644c-3.315,22.699 -7.522,51.718 -30.628,62.976l-0.007,0Zm23.899,-175.211c-0.253,19.257 -7.564,43.873 -30.192,45.755c-13.519,2.03 -26.73,-5.429 -32.889,-17.438c-12.698,-25.424 -11.82,-75.561 22.523,-82.809c32.552,-6.194 42.7,28.535 40.565,54.492l-0.007,0Zm210.292,0.695c-0.253,19.257 -7.564,43.873 -30.192,45.755c-13.519,2.03 -26.73,-5.429 -32.889,-17.438c-12.698,-25.424 -11.82,-75.561 22.523,-82.809c32.552,-6.194 42.7,28.535 40.565,54.492l-0.007,0Zm203.276,0c-0.253,19.257 -7.564,43.873 -30.192,45.755c-13.519,2.03 -26.73,-5.429 -32.889,-17.438c-12.698,-25.424 -11.82,-75.561 22.523,-82.809c32.552,-6.194 42.7,28.535 40.565,54.492l-0.007,0Z" style="fill:#fff;fill-rule:nonzero;"/><path d="M703.655,98.876c12.052,-2.472 14.952,-16.764 12.347,-27.186c-2.261,-12.936 -18.239,-15.289 -28.907,-11.974c-9.186,2.163 -11.841,10.598 -12.304,18.941c-0.421,17.01 13.632,24.272 28.865,20.219Z" style="fill:#fff;fill-rule:nonzero;"/><circle cx="184.18" cy="53.858" r="10.317" style="fill:#f3b01c;"/><circle cx="181.75" cy="104.487" r="10.317" style="fill:#f3b01c;"/><circle cx="209.294" cy="78.622" r="10.317" style="fill:#f3b01c;"/></g></g><g transform="matrix(333.333333,0,0,333.333333,1239.811198,966.666667)"></g><g transform="matrix(333.333333,0,0,333.333333,1339.288646,966.666667)"></g><g transform="matrix(333.333333,0,0,333.333333,1438.766094,966.666667)"></g><text x="266.667px" y="966.667px" style="font-family:'Georgia', serif;font-size:333.333px;fill:#fff;">Your oﬃce</text><text x="266.667px" y="1333.333px" style="font-family:'Georgia', serif;font-size:333.333px;fill:#84cba3;">can compost.</text><text x="266.667px" y="1550px" style="font-family:'Helvetica';font-size:83.333px;fill:#fff;fill-opacity:0.6;">A<tspan x="317.692px 340.845px " y="1550px 1550px "> m</tspan>anaged weekly kitchen scrap collection for Cape <tspan x="2215.356px 2257.023px 2303.369px " y="1550px 1550px 1550px ">Tow</tspan>n</text><g transform="matrix(83.333333,0,0,83.333333,334.700521,1650)"></g><g transform="matrix(83.333333,0,0,83.333333,357.85319,1650)"></g><text x="266.667px" y="1650px" style="font-family:'Helvetica';font-size:83.333px;fill:#fff;fill-opacity:0.6;">of<tspan x="334.701px " y="1650px ">ﬁ</tspan>ces and workplaces.</text><path d="M2666.667,1916.667l0,400c0,36.794 -29.872,66.667 -66.667,66.667l-2266.667,0c-36.794,0 -66.667,-29.872 -66.667,-66.667l0,-400c0,-36.794 29.872,-66.667 66.667,-66.667l2266.667,0c36.794,0 66.667,29.872 66.667,66.667Z" style="fill:#fbb718;fill-opacity:0.1;stroke:#fbb718;stroke-opacity:0.28;stroke-width:4.17px;"/><text x="400px" y="2050px" style="font-family:'Georgia', serif;font-size:183.333px;fill:#fbb718;">16 tonnes</text><g transform="matrix(66.666667,0,0,66.666667,1437.565104,2175)"></g><g transform="matrix(66.666667,0,0,66.666667,1456.08724,2175)"></g><text x="400px" y="2175px" style="font-family:'Helvetica';font-size:66.667px;fill:#fff;fill-opacity:0.72;">of organic waste diverted from landﬁll in 2025</text><text x="400px" y="2283.333px" style="font-family:'Helvetica';font-size:54.167px;fill:#fff;fill-opacity:0.4;">5.5 tonnes of compost created · emissions saving ≈ driving 37 000 km</text><path d="M266.667,2750l2650,0" style="fill:none;fill-rule:nonzero;stroke:#fff;stroke-opacity:0.1;stroke-width:3.13px;"/><text x="266.667px" y="2841.667px" style="font-family:'Helvetica';font-size:50px;fill:#fff;fill-opacity:0.28;">gooi.me · howzit@gooi.me · 083 635 3126</text></svg>