<?xml version="1.0" encoding="UTF-8"?><svg id="Layer_2" xmlns="http://www.w3.org/2000/svg" viewBox="0 0 1117.33 557.37"><defs><style>.cls-1{fill:#f3b01c;}.cls-1,.cls-2{stroke-width:0px;}.cls-2{fill:#ffffff;}</style></defs><g id="Layer_1-2"><path class="cls-2" d="M298.73,457.51c-.62-.9-1.49-1.65-2.62-2.24-1.13-.59-2.34-.89-3.64-.89-3.21,0-5.71.96-7.49,2.88-1.78,1.92-2.66,4.43-2.66,7.53s.89,5.61,2.66,7.53c1.78,1.92,4.27,2.88,7.49,2.88,1.41,0,2.62-.31,3.64-.93,1.01-.62,1.89-1.35,2.62-2.2l8.37,8.8c-1.97,2.03-4.3,3.45-6.98,4.27-2.68.82-5.23,1.23-7.65,1.23-3.16,0-6.13-.51-8.92-1.52-2.79-1.02-5.22-2.47-7.27-4.36-2.06-1.89-3.68-4.16-4.86-6.81-1.18-2.65-1.78-5.61-1.78-8.88s.59-6.23,1.78-8.88c1.18-2.65,2.8-4.92,4.86-6.81,2.06-1.89,4.48-3.34,7.27-4.36,2.79-1.01,5.76-1.52,8.92-1.52,2.42,0,4.98.41,7.65,1.23,2.68.82,5,2.24,6.98,4.27l-8.37,8.8Z"/><path class="cls-2" d="M310.15,464.78c0-3.27.59-6.23,1.78-8.88,1.18-2.65,2.8-4.92,4.86-6.81,2.06-1.89,4.48-3.34,7.27-4.36,2.79-1.01,5.76-1.52,8.92-1.52s6.13.51,8.92,1.52c2.79,1.02,5.21,2.47,7.27,4.36,2.06,1.89,3.68,4.16,4.86,6.81,1.18,2.65,1.78,5.61,1.78,8.88s-.59,6.23-1.78,8.88c-1.18,2.65-2.81,4.92-4.86,6.81-2.06,1.89-4.48,3.34-7.27,4.36-2.79,1.01-5.77,1.52-8.92,1.52s-6.13-.51-8.92-1.52c-2.79-1.02-5.22-2.47-7.27-4.36-2.06-1.89-3.68-4.16-4.86-6.81-1.18-2.65-1.78-5.61-1.78-8.88ZM322.84,464.78c0,3.1.89,5.61,2.66,7.53,1.78,1.92,4.27,2.88,7.49,2.88s5.71-.96,7.48-2.88c1.78-1.92,2.66-4.43,2.66-7.53s-.89-5.61-2.66-7.53c-1.78-1.92-4.27-2.88-7.48-2.88s-5.71.96-7.49,2.88c-1.78,1.92-2.66,4.43-2.66,7.53Z"/><path class="cls-2" d="M363.26,444.23h12.18v5.58h.17c.39-.79.96-1.58,1.69-2.37.73-.79,1.61-1.49,2.62-2.11,1.02-.62,2.17-1.13,3.47-1.52,1.3-.39,2.71-.59,4.23-.59,2.88,0,5.43.59,7.65,1.78,2.23,1.18,3.9,3.04,5.03,5.58,1.47-2.65,3.24-4.54,5.33-5.67,2.08-1.13,4.65-1.69,7.7-1.69,2.76,0,5.09.47,6.98,1.4,1.89.93,3.38,2.2,4.48,3.81s1.89,3.5,2.37,5.67c.48,2.17.72,4.5.72,6.98v24.27h-12.69v-23.94c0-1.92-.41-3.57-1.23-4.95-.82-1.38-2.27-2.07-4.36-2.07-1.47,0-2.69.24-3.68.72-.99.48-1.78,1.14-2.37,1.99-.59.85-1.02,1.83-1.27,2.96-.25,1.13-.38,2.31-.38,3.55v21.74h-12.69v-21.74c0-.73-.03-1.63-.08-2.71-.06-1.07-.25-2.09-.59-3.04-.34-.96-.89-1.78-1.65-2.45-.76-.68-1.88-1.02-3.34-1.02-1.64,0-2.96.3-3.98.89-1.01.59-1.79,1.38-2.33,2.37-.54.99-.89,2.1-1.06,3.34-.17,1.24-.25,2.54-.25,3.89v20.47h-12.69v-41.1Z"/><path class="cls-2" d="M438.03,444.23h11.67v5.41h.17c.51-.73,1.17-1.48,1.99-2.24.82-.76,1.78-1.45,2.88-2.07,1.1-.62,2.3-1.13,3.59-1.52,1.3-.39,2.68-.59,4.14-.59,3.04,0,5.81.52,8.29,1.56,2.48,1.04,4.61,2.51,6.39,4.4,1.78,1.89,3.14,4.13,4.1,6.72.96,2.59,1.44,5.44,1.44,8.54,0,2.88-.44,5.62-1.31,8.25-.88,2.62-2.11,4.95-3.72,6.98-1.61,2.03-3.57,3.65-5.88,4.86-2.31,1.21-4.93,1.82-7.87,1.82-2.65,0-5.12-.41-7.4-1.23s-4.16-2.21-5.62-4.19h-.17v23.68h-12.69v-60.39ZM449.7,464.78c0,3.1.89,5.61,2.66,7.53,1.78,1.92,4.27,2.88,7.48,2.88s5.71-.96,7.49-2.88c1.78-1.92,2.66-4.43,2.66-7.53s-.89-5.61-2.66-7.53c-1.78-1.92-4.27-2.88-7.49-2.88s-5.71.96-7.48,2.88c-1.78,1.92-2.66,4.43-2.66,7.53Z"/><path class="cls-2" d="M488.61,464.78c0-3.27.59-6.23,1.78-8.88,1.18-2.65,2.8-4.92,4.86-6.81,2.06-1.89,4.48-3.34,7.27-4.36,2.79-1.01,5.76-1.52,8.92-1.52s6.13.51,8.92,1.52c2.79,1.02,5.21,2.47,7.27,4.36,2.06,1.89,3.68,4.16,4.86,6.81,1.18,2.65,1.78,5.61,1.78,8.88s-.59,6.23-1.78,8.88c-1.18,2.65-2.81,4.92-4.86,6.81-2.06,1.89-4.48,3.34-7.27,4.36-2.79,1.01-5.77,1.52-8.92,1.52s-6.13-.51-8.92-1.52c-2.79-1.02-5.22-2.47-7.27-4.36-2.06-1.89-3.68-4.16-4.86-6.81-1.18-2.65-1.78-5.61-1.78-8.88ZM501.29,464.78c0,3.1.89,5.61,2.66,7.53,1.78,1.92,4.27,2.88,7.49,2.88s5.71-.96,7.48-2.88c1.78-1.92,2.66-4.43,2.66-7.53s-.89-5.61-2.66-7.53c-1.78-1.92-4.27-2.88-7.48-2.88s-5.71.96-7.49,2.88c-1.78,1.92-2.66,4.43-2.66,7.53Z"/><path class="cls-2" d="M564.98,456.32c-1.86-2.31-4.31-3.47-7.36-3.47-1.07,0-2.11.25-3.13.76s-1.52,1.38-1.52,2.62c0,1.01.52,1.76,1.56,2.24,1.04.48,2.37.9,3.98,1.27,1.61.37,3.33.76,5.16,1.18,1.83.42,3.55,1.09,5.16,1.99,1.61.9,2.93,2.13,3.98,3.68,1.04,1.55,1.56,3.62,1.56,6.22s-.58,4.84-1.73,6.55c-1.16,1.72-2.64,3.1-4.44,4.14-1.81,1.04-3.83,1.78-6.09,2.2-2.26.42-4.48.63-6.68.63-2.88,0-5.78-.41-8.71-1.23-2.93-.82-5.41-2.27-7.44-4.36l7.7-8.54c1.18,1.47,2.5,2.58,3.93,3.34,1.44.76,3.12,1.14,5.03,1.14,1.47,0,2.79-.21,3.98-.63s1.78-1.2,1.78-2.33c0-1.07-.52-1.87-1.56-2.41-1.04-.54-2.37-.99-3.98-1.35-1.61-.37-3.33-.76-5.16-1.18-1.83-.42-3.55-1.06-5.16-1.9-1.61-.85-2.93-2.04-3.98-3.59-1.04-1.55-1.56-3.62-1.56-6.22,0-2.42.49-4.51,1.48-6.26.99-1.75,2.28-3.19,3.89-4.31,1.61-1.13,3.45-1.96,5.54-2.5,2.08-.54,4.2-.8,6.34-.8,2.71,0,5.44.4,8.2,1.18,2.76.79,5.1,2.2,7.02,4.23l-7.78,7.7Z"/><path class="cls-2" d="M608.87,454.38h-11.16v13.7c0,1.13.06,2.16.17,3.09.11.93.37,1.73.76,2.41.39.68,1,1.2,1.82,1.56.82.37,1.9.55,3.26.55.68,0,1.56-.07,2.66-.21,1.1-.14,1.93-.46,2.5-.97v10.57c-1.41.51-2.88.85-4.4,1.02s-3.02.25-4.48.25c-2.14,0-4.12-.23-5.92-.68-1.81-.45-3.38-1.17-4.74-2.16-1.35-.99-2.41-2.27-3.17-3.85-.76-1.58-1.14-3.5-1.14-5.75v-19.54h-8.12v-10.15h8.12v-12.18h12.69v12.18h11.16v10.15Z"/><path class="cls-2" d="M668.16,457.51c-.62-.9-1.49-1.65-2.62-2.24-1.13-.59-2.34-.89-3.64-.89-3.21,0-5.71.96-7.49,2.88-1.78,1.92-2.66,4.43-2.66,7.53s.89,5.61,2.66,7.53c1.78,1.92,4.27,2.88,7.49,2.88,1.41,0,2.62-.31,3.64-.93,1.01-.62,1.89-1.35,2.62-2.2l8.37,8.8c-1.97,2.03-4.3,3.45-6.98,4.27-2.68.82-5.23,1.23-7.65,1.23-3.16,0-6.13-.51-8.92-1.52-2.79-1.02-5.22-2.47-7.27-4.36-2.06-1.89-3.68-4.16-4.86-6.81-1.18-2.65-1.78-5.61-1.78-8.88s.59-6.23,1.78-8.88c1.18-2.65,2.8-4.92,4.86-6.81,2.06-1.89,4.48-3.34,7.27-4.36,2.79-1.01,5.76-1.52,8.92-1.52,2.42,0,4.98.41,7.65,1.23,2.68.82,5,2.24,6.98,4.27l-8.37,8.8Z"/><path class="cls-2" d="M679.58,464.78c0-3.27.59-6.23,1.78-8.88,1.18-2.65,2.8-4.92,4.86-6.81,2.06-1.89,4.48-3.34,7.27-4.36,2.79-1.01,5.76-1.52,8.92-1.52s6.13.51,8.92,1.52c2.79,1.02,5.21,2.47,7.27,4.36,2.06,1.89,3.68,4.16,4.86,6.81,1.18,2.65,1.78,5.61,1.78,8.88s-.59,6.23-1.78,8.88c-1.18,2.65-2.81,4.92-4.86,6.81-2.06,1.89-4.48,3.34-7.27,4.36-2.79,1.01-5.77,1.52-8.92,1.52s-6.13-.51-8.92-1.52c-2.79-1.02-5.22-2.47-7.27-4.36-2.06-1.89-3.68-4.16-4.86-6.81-1.18-2.65-1.78-5.61-1.78-8.88ZM692.27,464.78c0,3.1.89,5.61,2.66,7.53,1.78,1.92,4.27,2.88,7.49,2.88s5.71-.96,7.48-2.88c1.78-1.92,2.66-4.43,2.66-7.53s-.89-5.61-2.66-7.53c-1.78-1.92-4.27-2.88-7.48-2.88s-5.71.96-7.49,2.88c-1.78,1.92-2.66,4.43-2.66,7.53Z"/><path class="cls-2" d="M732.86,421.39h12.69v63.94h-12.69v-63.94Z"/><path class="cls-2" d="M754.85,421.39h12.69v63.94h-12.69v-63.94Z"/><path class="cls-2" d="M815.58,478.23c-2.03,2.59-4.6,4.6-7.7,6-3.1,1.41-6.32,2.11-9.64,2.11s-6.13-.51-8.92-1.52c-2.79-1.02-5.22-2.47-7.27-4.36-2.06-1.89-3.68-4.16-4.86-6.81-1.18-2.65-1.78-5.61-1.78-8.88s.59-6.23,1.78-8.88c1.18-2.65,2.8-4.92,4.86-6.81,2.06-1.89,4.48-3.34,7.27-4.36,2.79-1.01,5.76-1.52,8.92-1.52,2.93,0,5.6.51,7.99,1.52,2.4,1.02,4.43,2.47,6.09,4.36,1.66,1.89,2.95,4.16,3.85,6.81.9,2.65,1.35,5.61,1.35,8.88v3.98h-29.43c.51,2.42,1.61,4.36,3.3,5.79s3.78,2.16,6.26,2.16c2.09,0,3.85-.47,5.29-1.4s2.69-2.13,3.76-3.59l8.88,6.51ZM804.84,460.13c.06-2.14-.65-3.98-2.11-5.5-1.47-1.52-3.36-2.28-5.67-2.28-1.41,0-2.65.23-3.72.68-1.07.45-1.99,1.03-2.75,1.73-.76.71-1.35,1.52-1.78,2.45-.42.93-.66,1.9-.72,2.92h16.75Z"/><path class="cls-2" d="M853.05,457.51c-.62-.9-1.49-1.65-2.62-2.24-1.13-.59-2.34-.89-3.64-.89-3.21,0-5.71.96-7.49,2.88-1.78,1.92-2.66,4.43-2.66,7.53s.89,5.61,2.66,7.53c1.78,1.92,4.27,2.88,7.49,2.88,1.41,0,2.62-.31,3.64-.93,1.01-.62,1.89-1.35,2.62-2.2l8.37,8.8c-1.97,2.03-4.3,3.45-6.98,4.27-2.68.82-5.23,1.23-7.65,1.23-3.16,0-6.13-.51-8.92-1.52-2.79-1.02-5.22-2.47-7.27-4.36-2.06-1.89-3.68-4.16-4.86-6.81-1.18-2.65-1.78-5.61-1.78-8.88s.59-6.23,1.78-8.88c1.18-2.65,2.8-4.92,4.86-6.81,2.06-1.89,4.48-3.34,7.27-4.36,2.79-1.01,5.76-1.52,8.92-1.52,2.42,0,4.98.41,7.65,1.23,2.68.82,5,2.24,6.98,4.27l-8.37,8.8Z"/><path class="cls-2" d="M893.98,454.38h-11.16v13.7c0,1.13.06,2.16.17,3.09.11.93.37,1.73.76,2.41.39.68,1,1.2,1.82,1.56.82.37,1.9.55,3.26.55.68,0,1.56-.07,2.66-.21,1.1-.14,1.93-.46,2.5-.97v10.57c-1.41.51-2.88.85-4.4,1.02s-3.02.25-4.48.25c-2.14,0-4.12-.23-5.92-.68-1.81-.45-3.38-1.17-4.74-2.16-1.35-.99-2.41-2.27-3.17-3.85-.76-1.58-1.14-3.5-1.14-5.75v-19.54h-8.12v-10.15h8.12v-12.18h12.69v12.18h11.16v10.15Z"/><path class="cls-2" d="M899.56,431.29c0-2.03.72-3.76,2.16-5.2,1.44-1.44,3.17-2.16,5.2-2.16s3.76.72,5.2,2.16c1.44,1.44,2.16,3.17,2.16,5.2s-.72,3.76-2.16,5.2c-1.44,1.44-3.17,2.16-5.2,2.16s-3.76-.72-5.2-2.16c-1.44-1.44-2.16-3.17-2.16-5.2ZM900.58,444.23h12.69v41.1h-12.69v-41.1Z"/><path class="cls-2" d="M920.88,464.78c0-3.27.59-6.23,1.78-8.88,1.18-2.65,2.8-4.92,4.86-6.81,2.06-1.89,4.48-3.34,7.27-4.36,2.79-1.01,5.76-1.52,8.92-1.52s6.13.51,8.92,1.52c2.79,1.02,5.21,2.47,7.27,4.36,2.06,1.89,3.68,4.16,4.86,6.81,1.18,2.65,1.78,5.61,1.78,8.88s-.59,6.23-1.78,8.88c-1.18,2.65-2.81,4.92-4.86,6.81-2.06,1.89-4.48,3.34-7.27,4.36-2.79,1.01-5.77,1.52-8.92,1.52s-6.13-.51-8.92-1.52c-2.79-1.02-5.22-2.47-7.27-4.36-2.06-1.89-3.68-4.16-4.86-6.81-1.18-2.65-1.78-5.61-1.78-8.88ZM933.56,464.78c0,3.1.89,5.61,2.66,7.53,1.78,1.92,4.27,2.88,7.49,2.88s5.71-.96,7.48-2.88c1.78-1.92,2.66-4.43,2.66-7.53s-.89-5.61-2.66-7.53c-1.78-1.92-4.27-2.88-7.48-2.88s-5.71.96-7.49,2.88c-1.78,1.92-2.66,4.43-2.66,7.53Z"/><path class="cls-2" d="M973.99,444.23h12.18v5.58h.17c.39-.79.96-1.58,1.69-2.37.73-.79,1.61-1.49,2.62-2.11,1.02-.62,2.17-1.13,3.47-1.52,1.3-.39,2.71-.59,4.23-.59,3.21,0,5.81.49,7.78,1.48,1.97.99,3.51,2.35,4.61,4.1,1.1,1.75,1.85,3.81,2.24,6.17.39,2.37.59,4.94.59,7.7v22.67h-12.69v-20.13c0-1.18-.04-2.41-.13-3.68-.08-1.27-.34-2.44-.76-3.51-.42-1.07-1.07-1.95-1.95-2.62-.87-.68-2.13-1.02-3.76-1.02s-2.96.3-3.98.89c-1.01.59-1.79,1.38-2.33,2.37-.54.99-.89,2.1-1.06,3.34-.17,1.24-.25,2.54-.25,3.89v20.47h-12.69v-41.1Z"/><path class="cls-2" d="M1116.57,118.91c-34.7,10.73-78.22,10.58-65.82,60.39,12.96-22.9,32.72-38.24,55.08-50.1.05.07.1.13.15.22-31.53,25.13-62.35,52.21-69.69,95.67-3.16,30.4.38,57.2-16.67,82.87-10.14,14.16-23.28,21.92-41.35,18.43-21.31-2.82-31.76-24.73-31.1-44.45-1.03-40.73,2.32-81.79-1.88-122.31-2.55-28.38-30.85-41.93-55.85-30.27-2.21.58-2.85,2.16-2.85,4.44.07,22.5-.2,36.9.08,59.4.07,4.99.99,10.84-3.25,16.99-9.08,13.14-37.68,18.18-50.54,7.76-9.82-7.96-15.63-22.55-21.35-33.44-38.19-83.14-173.53-78.73-208.99,4.78-10.44,22.83-40,44.26-61.49,22.15-19-18.24-25.04-45.72-46.36-62.11-51.5-41.45-139.98-31.38-174.67,27.02-29.42,39.89-10.44,93.17-37.23,133.54-12.77,17.92-24.22,40.7-45.17,48.91-.51-32.71,3.99-191.3-.88-225.44-18.8-15.58-39.42-8.05-49.58,8.78-51.33-35.36-133.66-22.16-166.57,33.23-18.02,27.87-26.46,82.49-16.14,118.03,16.66,53.07,53.45,80.1,93.02,86.11,6.48,1.25,13.23,1.71,20.21,1.27,22.46-.54,44.86-7.45,64.13-19.84-.11,18.62.69,17.76-24.86,24.35-28.98,10.26-69.12,12.79-97.01,49.46-23.48,27.74-24.31,71.34-.12,98.54,30.05,30.51,83.18,31.19,117.25,7,43.54-31.97,52.5-92.79,59.08-142.25,37.32-16.92,58.06-64.19,67.72-103.65,46.99,149.69,254.77,95.75,229.77-57.4,21.31,17.42,52.52-3.88,62.25-24.68-16.78,42.81-5.62,97.33,24.43,131.7,83.44,88.18,215.46,18.31,207.08-101.44,22.11,9.06,52.14-4.34,59.82-21.53-.63,29.09-.84,60.09-.54,88.99.13,11.43,1.88,22.59,6.84,33.13,22.09,53.14,105.52,51.69,133.11,4.31,21.53-35,20.36-72.55,21.23-112.37-.61-16.31,4.98-33.05,12.36-46.27,13.38,2.42,33.33,12.36,43.11-3.84,11.08-20.19,5.81-45.03,13.97-66.23-.39.1-.57.15-.75.2ZM134.82,507.12c-21.6,12.35-53.32-1.16-45.84-28.95,12.68-36.53,57.91-45.98,89.46-60.72-4.72,32.32-10.71,73.64-43.61,89.67ZM168.85,257.64c-.36,27.42-10.77,62.47-42.99,65.15-19.25,2.89-38.06-7.73-46.83-24.83-18.08-36.2-16.83-107.59,32.07-117.91,46.35-8.82,60.8,40.63,57.76,77.59ZM468.28,258.63c-.36,27.42-10.77,62.47-42.99,65.15-19.25,2.89-38.06-7.73-46.83-24.83-18.08-36.2-16.83-107.59,32.07-117.91,46.35-8.82,60.8,40.63,57.76,77.59ZM757.72,258.63c-.36,27.42-10.77,62.47-42.99,65.15-19.25,2.89-38.06-7.73-46.83-24.83-18.08-36.2-16.83-107.59,32.07-117.91,46.35-8.82,60.8,40.63,57.76,77.59Z"/><path class="cls-2" d="M927.19,78.79c17.16-3.52,21.29-23.87,17.58-38.71-3.22-18.42-25.97-21.77-41.16-17.05-13.08,3.08-16.86,15.09-17.52,26.97-.6,24.22,19.41,34.56,41.1,28.79Z"/><circle class="cls-1" cx="187.52" cy="14.69" r="14.69"/><circle class="cls-1" cx="184.06" cy="86.78" r="14.69"/><circle class="cls-1" cx="223.28" cy="49.95" r="14.69"/></g></svg>